<svg width="31" height="39" viewBox="0 0 31 39" fill="none" xmlns="http://www.w3.org/2000/svg">
<g filter="url(#filter0_f_40024596_120843)">
<path d="M15.1035 21.3184C16.5613 21.3185 17.7059 22.4457 17.7061 23.792C17.7061 25.1384 16.5614 26.2665 15.1035 26.2666C13.6455 26.2666 12.5 25.1385 12.5 23.792C12.5002 22.4456 13.6456 21.3184 15.1035 21.3184Z" stroke="#667085"/>
</g>
<path d="M12.8682 1.72949C14.2984 0.854462 16.0902 0.854475 17.5205 1.72949L17.5244 1.73242L25.4824 6.54688L25.4883 6.55078C26.0418 6.87947 26.3719 7.46584 26.3721 8.11328V20.6836C26.3721 21.6567 25.565 22.4844 24.5205 22.4844H5.86816C4.85942 22.4844 4.04199 21.6669 4.04199 20.6582V8.11328C4.04212 7.5064 4.33198 6.95287 4.82422 6.61523L4.92578 6.55078L4.93262 6.54688L12.8652 1.73145L12.8682 1.72949Z" stroke="#667085" stroke-width="1.67"/>
<path d="M13.1416 15.9326H17.2725C18.2812 15.9326 19.0986 16.75 19.0986 17.7588V22.2461H11.3154V17.7588C11.3154 16.75 12.1329 15.9326 13.1416 15.9326Z" stroke="#667085" stroke-width="1.67"/>
<g filter="url(#filter1_f_40024596_120843)">
<ellipse cx="15.1026" cy="16.6809" rx="2.58604" ry="1.03442" fill="white"/>
<path d="M15.1025 16.1465C15.7692 16.1465 16.3496 16.2559 16.7451 16.4141C16.9441 16.4937 17.0719 16.5758 17.1416 16.6416C17.1579 16.657 17.1672 16.6711 17.1748 16.6807C17.1672 16.6903 17.158 16.7052 17.1416 16.7207C17.0719 16.7865 16.9439 16.8687 16.7451 16.9482C16.3496 17.1063 15.7691 17.2148 15.1025 17.2148C14.4359 17.2148 13.8554 17.1064 13.46 16.9482C13.2611 16.8687 13.1332 16.7865 13.0635 16.7207C13.047 16.7051 13.0379 16.6903 13.0303 16.6807C13.0379 16.6711 13.0472 16.657 13.0635 16.6416C13.1331 16.5758 13.2609 16.4937 13.46 16.4141C13.8554 16.2559 14.4358 16.1465 15.1025 16.1465Z" stroke="#667085"/>
</g>
<rect x="8.87891" y="8.13086" width="4.17208" height="1.06883" rx="0.534416" fill="#667085" stroke="#667085"/>
<defs>
<filter id="filter0_f_40024596_120843" x="0" y="8.81836" width="30.2061" height="29.9473" filterUnits="userSpaceOnUse" color-interpolation-filters="sRGB">
<feFlood flood-opacity="0" result="BackgroundImageFix"/>
<feBlend mode="normal" in="SourceGraphic" in2="BackgroundImageFix" result="shape"/>
<feGaussianBlur stdDeviation="6" result="effect1_foregroundBlur_40024596_120843"/>
</filter>
<filter id="filter1_f_40024596_120843" x="4.5166" y="7.64648" width="21.1719" height="18.0684" filterUnits="userSpaceOnUse" color-interpolation-filters="sRGB">
<feFlood flood-opacity="0" result="BackgroundImageFix"/>
<feBlend mode="normal" in="SourceGraphic" in2="BackgroundImageFix" result="shape"/>
<feGaussianBlur stdDeviation="4" result="effect1_foregroundBlur_40024596_120843"/>
</filter>
</defs>
</svg>
