<svg width="24" height="24" viewBox="0 0 24 24" fill="none" xmlns="http://www.w3.org/2000/svg">
<path d="M12 23C18.0751 23 23 18.0751 23 12C23 5.92487 18.0751 1 12 1C5.92487 1 1 5.92487 1 12C1 18.0751 5.92487 23 12 23Z" stroke="#667085" stroke-width="1.5" stroke-linecap="round" stroke-linejoin="round"/>
<path d="M9.2163 19.1523C9.45036 19.1523 9.64005 19.3421 9.64013 19.5762C9.64013 19.8103 9.45041 20 9.2163 20C8.98234 19.9998 8.79248 19.8102 8.79248 19.5762C8.79256 19.3422 8.98239 19.1525 9.2163 19.1523ZM9.84814 5.08789C9.93991 5.13594 9.97524 5.24911 9.92724 5.34082L5.49462 13.8057L10.9644 13.8701C11.0295 13.8709 11.0901 13.9057 11.1235 13.9619C11.157 14.0184 11.1585 14.0886 11.1274 14.1465L11.1265 14.1455L8.56005 18.9443L8.61279 19.1113L8.38427 19.5479L8.29834 19.502L8.22314 19.6494C8.21521 19.6648 8.20008 19.6742 8.18408 19.6758C8.17502 19.6766 8.16541 19.6754 8.15673 19.6709C8.13291 19.6583 8.12384 19.6285 8.13623 19.6045L8.21142 19.457L8.15478 19.4268L8.03173 19.666C8.02329 19.6823 8.00769 19.6926 7.99072 19.6943C7.98096 19.6953 7.97076 19.6933 7.96142 19.6885C7.93587 19.6751 7.92586 19.6438 7.93896 19.6182L8.06201 19.3779L8.00634 19.3486L7.93505 19.4883C7.92714 19.5036 7.91189 19.513 7.89599 19.5146C7.88686 19.5155 7.87741 19.5133 7.86865 19.5088C7.84461 19.4963 7.83473 19.4665 7.84716 19.4424L7.91845 19.3027L7.83544 19.2598L8.06494 18.8232L8.22705 18.7725L10.6509 14.2412L5.18408 14.1777C5.11938 14.1767 5.05927 14.1426 5.02587 14.0869C4.99252 14.0309 4.98986 13.9609 5.02002 13.9033L9.59521 5.16699V5.16602C9.64332 5.07477 9.75658 5.04019 9.84814 5.08789ZM9.73486 18.3047C9.96876 18.3049 10.1586 18.4946 10.1587 18.7285C10.1587 18.9625 9.9688 19.1521 9.73486 19.1523C9.50076 19.1523 9.31103 18.9626 9.31103 18.7285C9.31109 18.4945 9.5008 18.3047 9.73486 18.3047ZM10.6919 18.3047C10.9259 18.3048 11.1157 18.4945 11.1157 18.7285C11.1157 18.9626 10.9259 19.1523 10.6919 19.1523C10.4578 19.1523 10.2681 18.9626 10.2681 18.7285C10.2681 18.4945 10.4578 18.3047 10.6919 18.3047ZM10.2163 17.3623C10.4504 17.3623 10.6401 17.552 10.6401 17.7861C10.6401 18.0202 10.4504 18.21 10.2163 18.21C9.98222 18.21 9.7925 18.0202 9.79248 17.7861C9.79248 17.552 9.98221 17.3623 10.2163 17.3623ZM11.1606 17.3623C11.3947 17.3623 11.5845 17.552 11.5845 17.7861C11.5844 18.0202 11.3947 18.21 11.1606 18.21C10.9266 18.2098 10.7368 18.0201 10.7368 17.7861C10.7368 17.5521 10.9266 17.3624 11.1606 17.3623ZM10.6919 16.4199C10.9259 16.42 11.1157 16.6097 11.1157 16.8438C11.1157 17.0778 10.9259 17.2675 10.6919 17.2676C10.4578 17.2676 10.2681 17.0778 10.2681 16.8438C10.2681 16.6096 10.4578 16.4199 10.6919 16.4199ZM11.6343 16.4199C11.8683 16.42 12.0581 16.6097 12.0581 16.8438C12.0581 17.0778 11.8683 17.2675 11.6343 17.2676C11.4002 17.2676 11.2105 17.0778 11.2104 16.8438C11.2104 16.6096 11.4002 16.4199 11.6343 16.4199ZM12.5854 16.4199C12.8194 16.4201 13.0093 16.6098 13.0093 16.8438C13.0092 17.0777 12.8194 17.2674 12.5854 17.2676C12.3514 17.2676 12.1617 17.0778 12.1616 16.8438C12.1616 16.6096 12.3513 16.4199 12.5854 16.4199ZM11.1606 15.4453C11.3946 15.4453 11.5843 15.6352 11.5845 15.8691C11.5845 16.1032 11.3947 16.293 11.1606 16.293C10.9266 16.2929 10.7368 16.1032 10.7368 15.8691C10.737 15.6352 10.9267 15.4454 11.1606 15.4453ZM12.1177 15.4453C12.3517 15.4453 12.5423 15.6352 12.5425 15.8691C12.5425 16.1032 12.3518 16.293 12.1177 16.293C11.8838 16.2927 11.6938 16.1031 11.6938 15.8691C11.694 15.6353 11.8839 15.4456 12.1177 15.4453ZM13.0649 15.4453C13.2989 15.4454 13.4886 15.6352 13.4888 15.8691C13.4888 16.1032 13.299 16.2929 13.0649 16.293C12.8308 16.293 12.6411 16.1032 12.6411 15.8691C12.6413 15.6352 12.8309 15.4453 13.0649 15.4453ZM14.7993 8.18555C14.8612 8.0796 14.9968 8.04372 15.103 8.10547C15.2091 8.16734 15.2448 8.30305 15.1831 8.40918L14.2798 9.95996H19.0171C19.0973 9.95996 19.1719 10.0034 19.2114 10.0732C19.2508 10.1432 19.249 10.2292 19.2075 10.2979L16.0796 15.4658C16.0573 15.5027 16.0255 15.5297 15.9897 15.5479V15.5732H15.8892C15.8499 15.5732 15.8098 15.5628 15.7739 15.541C15.6691 15.4773 15.6352 15.3403 15.6987 15.2354L18.6226 10.4053H13.8921C13.8126 10.4051 13.7393 10.3619 13.6997 10.293C13.6603 10.224 13.6606 10.139 13.7007 10.0703L14.7993 8.18555ZM11.6343 14.5029C11.8682 14.503 12.058 14.6928 12.0581 14.9268C12.0581 15.1608 11.8683 15.3505 11.6343 15.3506C11.4002 15.3506 11.2104 15.1609 11.2104 14.9268C11.2106 14.6928 11.4003 14.5029 11.6343 14.5029ZM12.5854 14.5029C12.8193 14.5031 13.0091 14.6929 13.0093 14.9268C13.0093 15.1607 12.8194 15.3504 12.5854 15.3506C12.3513 15.3506 12.1616 15.1609 12.1616 14.9268C12.1618 14.6928 12.3514 14.5029 12.5854 14.5029ZM13.5405 14.5029C13.7744 14.5031 13.9642 14.6929 13.9644 14.9268C13.9644 15.1608 13.7745 15.3504 13.5405 15.3506C13.3064 15.3506 13.1167 15.1609 13.1167 14.9268C13.1168 14.6928 13.3065 14.5029 13.5405 14.5029ZM14.4956 14.5029C14.7295 14.5031 14.9193 14.6929 14.9194 14.9268C14.9194 15.1608 14.7296 15.3505 14.4956 15.3506C14.2615 15.3506 14.0718 15.1609 14.0718 14.9268C14.0719 14.6928 14.2616 14.5029 14.4956 14.5029ZM12.1177 13.5605C12.3517 13.5605 12.5424 13.7503 12.5425 13.9844C12.5425 14.2185 12.3518 14.4082 12.1177 14.4082C11.8838 14.408 11.6938 14.2183 11.6938 13.9844C11.6939 13.7505 11.8838 13.5608 12.1177 13.5605ZM13.0649 13.5605C13.2989 13.5606 13.4887 13.7504 13.4888 13.9844C13.4888 14.2184 13.299 14.4081 13.0649 14.4082C12.8308 14.4082 12.6411 14.2185 12.6411 13.9844C12.6412 13.7503 12.8309 13.5605 13.0649 13.5605ZM14.0181 13.5605C14.252 13.5607 14.4418 13.7504 14.4419 13.9844C14.4419 14.2184 14.252 14.4081 14.0181 14.4082C13.784 14.4082 13.5942 14.2185 13.5942 13.9844C13.5943 13.7503 13.784 13.5605 14.0181 13.5605ZM14.9731 13.5605C15.2071 13.5607 15.3969 13.7504 15.397 13.9844C15.397 14.2184 15.2071 14.4081 14.9731 14.4082C14.739 14.4082 14.5493 14.2185 14.5493 13.9844C14.5494 13.7503 14.7391 13.5605 14.9731 13.5605ZM6.88134 12.5869C7.11545 12.5869 7.30615 12.7766 7.30615 13.0107C7.30595 13.2447 7.11532 13.4346 6.88134 13.4346C6.64757 13.4343 6.45771 13.2445 6.45752 13.0107C6.45752 12.7768 6.64745 12.5872 6.88134 12.5869ZM7.8374 12.5869C8.07129 12.5872 8.26123 12.7768 8.26123 13.0107C8.26103 13.2445 8.07117 13.4343 7.8374 13.4346C7.60342 13.4346 7.41279 13.2447 7.41259 13.0107C7.41259 12.7766 7.6033 12.5869 7.8374 12.5869ZM8.79248 12.5869C9.0264 12.5871 9.2163 12.7768 9.2163 13.0107C9.21611 13.2445 9.02628 13.4344 8.79248 13.4346C8.5585 13.4346 8.36885 13.2447 8.36865 13.0107C8.36865 12.7766 8.55837 12.5869 8.79248 12.5869ZM9.74072 12.5869C9.97482 12.5869 10.1645 12.7766 10.1645 13.0107C10.1643 13.2447 9.9747 13.4346 9.74072 13.4346C9.50681 13.4345 9.31709 13.2446 9.31689 13.0107C9.31689 12.7767 9.50668 12.587 9.74072 12.5869ZM10.6919 12.5869C10.9259 12.587 11.1157 12.7767 11.1157 13.0107C11.1155 13.2446 10.9258 13.4345 10.6919 13.4346C10.4579 13.4346 10.2683 13.2447 10.2681 13.0107C10.2681 12.7766 10.4578 12.5869 10.6919 12.5869ZM11.645 12.5869C11.879 12.587 12.0688 12.7767 12.0688 13.0107C12.0686 13.2446 11.8789 13.4344 11.645 13.4346C11.411 13.4346 11.2214 13.2447 11.2212 13.0107C11.2212 12.7766 11.4109 12.5869 11.645 12.5869ZM12.5913 12.5869C12.8254 12.5869 13.0151 12.7766 13.0151 13.0107C13.0149 13.2447 12.8253 13.4346 12.5913 13.4346C12.3574 13.4345 12.1677 13.2446 12.1675 13.0107C12.1675 12.7767 12.3573 12.587 12.5913 12.5869ZM13.5464 12.5869C13.7805 12.5869 13.9702 12.7766 13.9702 13.0107C13.97 13.2447 13.7804 13.4346 13.5464 13.4346C13.3125 13.4345 13.1228 13.2446 13.1226 13.0107C13.1226 12.7767 13.3124 12.587 13.5464 12.5869ZM14.4995 12.5869C14.7336 12.5869 14.9233 12.7766 14.9233 13.0107C14.9231 13.2447 14.7335 13.4346 14.4995 13.4346C14.2656 13.4345 14.0759 13.2446 14.0757 13.0107C14.0757 12.7767 14.2655 12.587 14.4995 12.5869ZM15.4546 12.5869C15.6887 12.5869 15.8784 12.7766 15.8784 13.0107C15.8782 13.2447 15.6886 13.4346 15.4546 13.4346C15.2207 13.4345 15.031 13.2446 15.0308 13.0107C15.0308 12.7767 15.2206 12.587 15.4546 12.5869ZM16.4038 12.5869C16.6378 12.5871 16.8276 12.7767 16.8276 13.0107C16.8274 13.2446 16.6377 13.4344 16.4038 13.4346C16.1698 13.4346 15.9802 13.2447 15.98 13.0107C15.98 12.7766 16.1697 12.5869 16.4038 12.5869ZM7.35498 11.6436C7.58893 11.6436 7.77856 11.8335 7.7788 12.0674C7.7788 12.3015 7.58908 12.4922 7.35498 12.4922C7.12094 12.4921 6.93115 12.3014 6.93115 12.0674C6.93139 11.8335 7.12109 11.6436 7.35498 11.6436ZM8.31201 11.6436C8.54596 11.6436 8.73559 11.8335 8.73584 12.0674C8.73584 12.3015 8.54611 12.4922 8.31201 12.4922C8.07808 12.492 7.88818 12.3014 7.88818 12.0674C7.88842 11.8336 8.07823 11.6438 8.31201 11.6436ZM9.26513 11.6436C9.49908 11.6436 9.68872 11.8335 9.68896 12.0674C9.68896 12.3015 9.49923 12.4922 9.26513 12.4922C9.03116 12.492 8.8413 12.3014 8.8413 12.0674C8.84155 11.8336 9.03131 11.6437 9.26513 11.6436ZM10.2163 11.6436C10.4503 11.6436 10.6399 11.8335 10.6401 12.0674C10.6401 12.3015 10.4504 12.4922 10.2163 12.4922C9.98221 12.4922 9.79248 12.3015 9.79248 12.0674C9.79272 11.8335 9.98236 11.6436 10.2163 11.6436ZM11.1675 11.6436C11.4013 11.6437 11.5911 11.8336 11.5913 12.0674C11.5913 12.3014 11.4015 12.492 11.1675 12.4922C10.9334 12.4922 10.7436 12.3015 10.7436 12.0674C10.7439 11.8335 10.9335 11.6436 11.1675 11.6436ZM12.1177 11.6436C12.3516 11.6436 12.5422 11.8335 12.5425 12.0674C12.5425 12.3015 12.3518 12.4922 12.1177 12.4922C11.8838 12.4919 11.6938 12.3013 11.6938 12.0674C11.6941 11.8336 11.8839 11.6438 12.1177 11.6436ZM13.0649 11.6436C13.2988 11.6436 13.4885 11.8335 13.4888 12.0674C13.4888 12.3014 13.299 12.4921 13.0649 12.4922C12.8308 12.4922 12.6411 12.3015 12.6411 12.0674C12.6414 11.8335 12.831 11.6436 13.0649 11.6436ZM14.022 11.6436C14.2559 11.6436 14.4456 11.8335 14.4458 12.0674C14.4458 12.3015 14.2561 12.4922 14.022 12.4922C13.7879 12.4922 13.5981 12.3015 13.5981 12.0674C13.5984 11.8335 13.788 11.6436 14.022 11.6436ZM14.9751 11.6436C15.209 11.6436 15.3987 11.8335 15.3989 12.0674C15.3989 12.3015 15.2092 12.4922 14.9751 12.4922C14.741 12.4922 14.5513 12.3015 14.5513 12.0674C14.5515 11.8335 14.7411 11.6436 14.9751 11.6436ZM15.9243 11.6436C16.158 11.6438 16.3479 11.8336 16.3481 12.0674C16.3481 12.3013 16.1582 12.4919 15.9243 12.4922C15.6902 12.4922 15.4995 12.3015 15.4995 12.0674C15.4997 11.8335 15.6904 11.6436 15.9243 11.6436ZM16.8794 11.6436C17.1132 11.6438 17.303 11.8336 17.3032 12.0674C17.3032 12.3013 17.1133 12.492 16.8794 12.4922C16.6453 12.4922 16.4556 12.3015 16.4556 12.0674C16.4558 11.8335 16.6454 11.6436 16.8794 11.6436ZM7.8374 10.7012C8.07128 10.7014 8.26121 10.8911 8.26123 11.125C8.26123 11.359 8.07129 11.5486 7.8374 11.5488C7.6033 11.5488 7.41259 11.3591 7.41259 11.125C7.41261 10.8909 7.6033 10.7012 7.8374 10.7012ZM8.79248 10.7012C9.02639 10.7014 9.21629 10.891 9.2163 11.125C9.2163 11.359 9.0264 11.5486 8.79248 11.5488C8.55837 11.5488 8.36865 11.3591 8.36865 11.125C8.36866 10.8909 8.55838 10.7012 8.79248 10.7012ZM9.74072 10.7012C9.97481 10.7012 10.1645 10.8909 10.1645 11.125C10.1645 11.3591 9.97482 11.5488 9.74072 11.5488C9.50668 11.5487 9.31689 11.3591 9.31689 11.125C9.3169 10.891 9.50669 10.7013 9.74072 10.7012ZM10.6919 10.7012C10.9259 10.7012 11.1157 10.891 11.1157 11.125C11.1157 11.3591 10.9259 11.5488 10.6919 11.5488C10.4578 11.5488 10.2681 11.3591 10.2681 11.125C10.2681 10.8909 10.4578 10.7012 10.6919 10.7012ZM11.6489 10.7012C11.883 10.7012 12.0727 10.8909 12.0727 11.125C12.0727 11.3591 11.883 11.5488 11.6489 11.5488C11.4149 11.5488 11.2251 11.3591 11.2251 11.125C11.2251 10.8909 11.4149 10.7012 11.6489 10.7012ZM12.5913 10.7012C12.8254 10.7012 13.0151 10.8909 13.0151 11.125C13.0151 11.3591 12.8254 11.5488 12.5913 11.5488C12.3573 11.5488 12.1675 11.3591 12.1675 11.125C12.1675 10.891 12.3573 10.7012 12.5913 10.7012ZM13.5464 10.7012C13.7805 10.7012 13.9702 10.8909 13.9702 11.125C13.9702 11.3591 13.7805 11.5488 13.5464 11.5488C13.3124 11.5487 13.1226 11.359 13.1226 11.125C13.1226 10.891 13.3124 10.7013 13.5464 10.7012ZM14.4995 10.7012C14.7336 10.7012 14.9233 10.8909 14.9233 11.125C14.9233 11.3591 14.7336 11.5488 14.4995 11.5488C14.2655 11.5488 14.0757 11.3591 14.0757 11.125C14.0757 10.8909 14.2655 10.7012 14.4995 10.7012ZM15.4546 10.7012C15.6887 10.7012 15.8784 10.8909 15.8784 11.125C15.8784 11.3591 15.6887 11.5488 15.4546 11.5488C15.2206 11.5487 15.0308 11.359 15.0308 11.125C15.0308 10.891 15.2206 10.7013 15.4546 10.7012ZM16.4038 10.7012C16.6378 10.7013 16.8276 10.891 16.8276 11.125C16.8276 11.359 16.6378 11.5487 16.4038 11.5488C16.1697 11.5488 15.98 11.3591 15.98 11.125C15.98 10.8909 16.1697 10.7012 16.4038 10.7012ZM17.3589 10.7012C17.5929 10.7013 17.7827 10.891 17.7827 11.125C17.7827 11.359 17.5929 11.5487 17.3589 11.5488C17.1248 11.5488 16.9351 11.3591 16.9351 11.125C16.9351 10.8909 17.1248 10.7012 17.3589 10.7012ZM8.31005 9.75879C8.54416 9.75879 8.73388 9.94852 8.73388 10.1826C8.73388 10.4167 8.54416 10.6064 8.31005 10.6064C8.07605 10.6063 7.88623 10.4166 7.88623 10.1826C7.88623 9.94859 8.07605 9.75891 8.31005 9.75879ZM9.26318 9.75879C9.49728 9.75879 9.68701 9.94852 9.68701 10.1826C9.68701 10.4167 9.49728 10.6064 9.26318 10.6064C9.02913 10.6064 8.83935 10.4167 8.83935 10.1826C8.83935 9.94855 9.02913 9.75885 9.26318 9.75879ZM10.2163 9.75879C10.4504 9.75879 10.6401 9.94852 10.6401 10.1826C10.6401 10.4167 10.4504 10.6064 10.2163 10.6064C9.98221 10.6064 9.79248 10.4167 9.79248 10.1826C9.79248 9.94852 9.98221 9.7588 10.2163 9.75879ZM11.1655 9.75879C11.3994 9.75902 11.5894 9.94866 11.5894 10.1826C11.5894 10.4166 11.3994 10.6062 11.1655 10.6064C10.9314 10.6064 10.7417 10.4167 10.7417 10.1826C10.7417 9.94852 10.9314 9.75879 11.1655 9.75879ZM12.1206 9.75879C12.3545 9.75899 12.5444 9.94864 12.5444 10.1826C12.5444 10.4166 12.3545 10.6062 12.1206 10.6064C11.8865 10.6064 11.6968 10.4167 11.6968 10.1826C11.6968 9.94852 11.8865 9.75879 12.1206 9.75879ZM8.78173 8.81641C9.01572 8.81654 9.20556 9.00622 9.20556 9.24023C9.20548 9.47418 9.01567 9.66392 8.78173 9.66406C8.54768 9.66406 8.35799 9.47426 8.35791 9.24023C8.35791 9.00613 8.54763 8.81641 8.78173 8.81641ZM9.73486 8.81641C9.9688 8.8166 10.1587 9.00625 10.1587 9.24023C10.1586 9.47414 9.96874 9.66387 9.73486 9.66406C9.50081 9.66406 9.31112 9.47426 9.31103 9.24023C9.31103 9.00613 9.50076 8.81641 9.73486 8.81641ZM10.688 8.81641C10.9219 8.81666 11.1118 9.00629 11.1118 9.24023C11.1117 9.47411 10.9218 9.66381 10.688 9.66406C10.4539 9.66406 10.2633 9.47426 10.2632 9.24023C10.2632 9.00613 10.4539 8.81641 10.688 8.81641ZM11.645 8.81641C11.879 8.81653 12.0688 9.00621 12.0688 9.24023C12.0688 9.47419 11.879 9.66394 11.645 9.66406C11.411 9.66406 11.2213 9.47426 11.2212 9.24023C11.2212 9.00613 11.4109 8.81641 11.645 8.81641ZM12.5913 8.81641C12.8254 8.81641 13.0151 9.00613 13.0151 9.24023C13.015 9.47426 12.8254 9.66406 12.5913 9.66406C12.3573 9.66399 12.1676 9.47422 12.1675 9.24023C12.1675 9.00618 12.3573 8.81648 12.5913 8.81641ZM9.26318 7.87305C9.49728 7.87305 9.68701 8.06375 9.68701 8.29785C9.68677 8.53175 9.49713 8.72168 9.26318 8.72168C9.02928 8.72162 8.83959 8.53171 8.83935 8.29785C8.83935 8.06379 9.02913 7.87311 9.26318 7.87305ZM10.2163 7.87305C10.4504 7.87305 10.6401 8.06375 10.6401 8.29785C10.6399 8.53175 10.4503 8.72168 10.2163 8.72168C9.98236 8.72167 9.79272 8.53174 9.79248 8.29785C9.79248 8.06375 9.98221 7.87305 10.2163 7.87305ZM11.1655 7.87305C11.3994 7.87328 11.5894 8.06389 11.5894 8.29785C11.5891 8.5316 11.3993 8.72145 11.1655 8.72168C10.9316 8.72168 10.7419 8.53175 10.7417 8.29785C10.7417 8.06375 10.9314 7.87305 11.1655 7.87305ZM12.1206 7.87305C12.3545 7.87324 12.5444 8.06387 12.5444 8.29785C12.5442 8.53163 12.3544 8.72148 12.1206 8.72168C11.8866 8.72168 11.697 8.53175 11.6968 8.29785C11.6968 8.06375 11.8865 7.87305 12.1206 7.87305ZM13.0737 7.87305C13.3076 7.8733 13.4976 8.0639 13.4976 8.29785C13.4973 8.53159 13.3075 8.72143 13.0737 8.72168C12.8398 8.72168 12.6492 8.53175 12.6489 8.29785C12.6489 8.06375 12.8396 7.87305 13.0737 7.87305ZM16.147 7.03223L16.8022 7.53516L16.0093 7.75488L15.7378 8.54004L15.2866 7.8457L14.4644 7.82715L14.978 7.17871L14.7407 6.38281L15.5102 6.67676L16.186 6.20215L16.147 7.03223ZM9.73681 6.88477C9.97079 6.88487 10.1606 7.0746 10.1606 7.30859C10.1606 7.54263 9.97083 7.73232 9.73681 7.73242C9.50271 7.73242 9.31298 7.5427 9.31298 7.30859C9.31304 7.07454 9.50274 6.88477 9.73681 6.88477ZM10.6919 6.88477C10.9259 6.88483 11.1157 7.07458 11.1157 7.30859C11.1157 7.54265 10.9259 7.73235 10.6919 7.73242C10.4578 7.73242 10.2681 7.5427 10.2681 7.30859C10.2681 7.07454 10.4578 6.88477 10.6919 6.88477ZM11.647 6.88477C11.881 6.8848 12.0707 7.07456 12.0708 7.30859C12.0708 7.54268 11.881 7.73239 11.647 7.73242C11.4129 7.73242 11.2231 7.5427 11.2231 7.30859C11.2232 7.07454 11.4129 6.88477 11.647 6.88477ZM12.5981 6.88477C12.8321 6.88495 13.0219 7.07465 13.022 7.30859C13.022 7.54259 12.8321 7.73224 12.5981 7.73242C12.364 7.73242 12.1743 7.5427 12.1743 7.30859C12.1744 7.07454 12.3641 6.88477 12.5981 6.88477ZM13.5464 6.88477C13.7805 6.88477 13.9702 7.07454 13.9702 7.30859C13.9702 7.5427 13.7805 7.73242 13.5464 7.73242C13.3124 7.73231 13.1226 7.54263 13.1226 7.30859C13.1226 7.07461 13.3124 6.88487 13.5464 6.88477ZM10.2124 5.94238C10.4463 5.94256 10.6362 6.13225 10.6362 6.36621C10.6362 6.6002 10.4463 6.78986 10.2124 6.79004C9.9783 6.79004 9.78857 6.60031 9.78857 6.36621C9.78861 6.13214 9.97832 5.94238 10.2124 5.94238ZM11.1606 5.94238C11.3947 5.94238 11.5844 6.13214 11.5845 6.36621C11.5845 6.60031 11.3947 6.79004 11.1606 6.79004C10.9266 6.78993 10.7368 6.60024 10.7368 6.36621C10.7369 6.13221 10.9267 5.9425 11.1606 5.94238ZM12.1206 5.94238C12.3545 5.94258 12.5444 6.13227 12.5444 6.36621C12.5444 6.60019 12.3545 6.78984 12.1206 6.79004C11.8865 6.79004 11.6968 6.60031 11.6968 6.36621C11.6968 6.13214 11.8865 5.94238 12.1206 5.94238ZM13.0688 5.94238C13.3029 5.94238 13.4926 6.13214 13.4927 6.36621C13.4927 6.60031 13.3029 6.79004 13.0688 6.79004C12.8348 6.78995 12.645 6.60026 12.645 6.36621C12.6451 6.1322 12.8348 5.94247 13.0688 5.94238ZM14.022 5.94238C14.256 5.94238 14.4458 6.13214 14.4458 6.36621C14.4458 6.60031 14.2561 6.79004 14.022 6.79004C13.7879 6.79 13.5981 6.60029 13.5981 6.36621C13.5982 6.13217 13.7879 5.94242 14.022 5.94238ZM10.6919 5C10.9259 5.00007 11.1157 5.18977 11.1157 5.42383C11.1157 5.65785 10.9259 5.84759 10.6919 5.84766C10.4578 5.84766 10.2681 5.65789 10.2681 5.42383C10.2681 5.18973 10.4578 5 10.6919 5ZM11.647 5C11.881 5.00003 12.0708 5.18975 12.0708 5.42383C12.0708 5.65787 11.881 5.84762 11.647 5.84766C11.4129 5.84766 11.2232 5.65789 11.2231 5.42383C11.2231 5.18973 11.4129 5 11.647 5ZM12.5981 5C12.8321 5.00018 13.022 5.18984 13.022 5.42383C13.0219 5.65778 12.8321 5.84748 12.5981 5.84766C12.3641 5.84766 12.1744 5.65789 12.1743 5.42383C12.1743 5.18973 12.364 5 12.5981 5ZM13.5464 5C13.7805 5 13.9702 5.18973 13.9702 5.42383C13.9702 5.65789 13.7805 5.84766 13.5464 5.84766C13.3124 5.84755 13.1226 5.65783 13.1226 5.42383C13.1226 5.18979 13.3124 5.00011 13.5464 5ZM14.4995 5C14.7336 5 14.9233 5.18973 14.9233 5.42383C14.9233 5.65789 14.7336 5.84766 14.4995 5.84766C14.2655 5.8476 14.0757 5.65786 14.0757 5.42383C14.0757 5.18976 14.2654 5.00005 14.4995 5Z" fill="#667085"/>
</svg>
