<svg width="24" height="24" viewBox="0 0 24 24" fill="none" xmlns="http://www.w3.org/2000/svg">
<path d="M13.8037 18.001H4.26074V18.9307C5.17335 19.2561 5.83203 20.1206 5.83203 21.1436C5.83199 22.4433 4.77525 23.5008 3.47559 23.501C2.17581 23.501 1.1182 22.4434 1.11816 21.1436C1.11816 20.1206 1.77686 19.2561 2.68945 18.9307V17.2148C2.68945 16.7809 3.04168 16.4287 3.47559 16.4287H14.502L13.8037 18.001ZM3.47559 10.1436C4.49843 10.1437 5.36214 10.8023 5.6875 11.7148H13.4541L12.7559 13.2861H5.6875C5.36211 14.1986 4.49839 14.8573 3.47559 14.8574C2.17578 14.8574 1.11816 13.7998 1.11816 12.5C1.11835 11.2003 2.17589 10.1436 3.47559 10.1436ZM3.47559 1.5C4.77526 1.50015 5.83203 2.55767 5.83203 3.85742C5.83194 4.88031 5.17329 5.74397 4.26074 6.06934V7H15.5488L14.8506 8.57129H3.47559C3.04176 8.57129 2.68958 8.21995 2.68945 7.78613V6.06934C1.77702 5.74391 1.11825 4.88024 1.11816 3.85742C1.11816 2.55758 2.17578 1.5 3.47559 1.5Z" fill="#667085"/>
<path d="M17.6191 5.92969H20.7617C20.8359 5.92969 20.9065 5.95878 20.959 6.00879L21.0049 6.06543C21.0567 6.14962 21.0615 6.25428 21.0176 6.34277L19.2295 9.9209L18.8672 10.6445H22.333C22.4436 10.6445 22.5446 10.708 22.5918 10.8076V10.8086C22.6389 10.9092 22.6236 11.0274 22.5527 11.1123L14.6953 20.542C14.6399 20.6085 14.5588 20.6445 14.4756 20.6445C14.4498 20.6445 14.4239 20.641 14.3984 20.6338L14.3252 20.6016C14.2041 20.5262 14.1571 20.3732 14.2148 20.2432L14.2158 20.2422L16.8672 14.2754L17.1797 13.5732H14.4766C14.3802 13.5732 14.2893 13.5238 14.2363 13.4424C14.184 13.3617 14.1755 13.2594 14.2148 13.1709H14.2158L17.3584 6.09961V6.09863C17.3926 6.02181 17.4587 5.96494 17.5371 5.94141L17.6191 5.92969Z" stroke="#667085"/>
</svg>
