<svg width="117" height="216" viewBox="0 0 117 216" fill="none" xmlns="http://www.w3.org/2000/svg">
<path d="M64.9994 0L64.9331 3.31864C64.9331 3.31864 65.3015 7.96925 61.9035 8.60019L33.1296 13.9391C29.7322 14.5683 28.3152 10.1152 28.3152 10.1152L27 7.05211L65 0.000579053L64.9994 0Z" fill="url(#paint0_linear_40024479_11491)"/>
<path d="M11.2985 59.0728C16.8526 58.2853 20.9475 63.9741 22.4091 71.8483C23.8719 79.7236 25.2192 87.1699 26.1312 90.5222C27.0433 93.8745 29.5882 107.478 29.7221 109.328C29.9715 112.742 40.3663 119.603 46.5307 135.497C52.6951 151.393 47.1675 176.066 31.6306 178.507C16.0961 180.946 10.8038 174.035 6.72307 164.48C2.64532 154.926 -2.3882 133.72 1.25973 122.877C8.26314 102.043 11.2666 89.7149 9.71712 78.7651C8.16704 67.8159 5.74255 59.8615 11.2991 59.0722L11.2985 59.0728Z" fill="url(#paint1_linear_40024479_11491)"/>
<path d="M8.43813 61.3989C9.59367 59.8633 11.7919 58.6802 13.5372 62.9926C15.0108 66.6379 17.5284 74.5526 16.9017 78.1493C16.2774 81.7454 10.56 84.2657 10.2442 82.329C9.92731 80.393 6.88807 63.4549 8.43753 61.3995L8.43813 61.3989Z" fill="url(#paint2_linear_40024479_11491)"/>
<path d="M49.3489 216C41.7662 195.706 25 186.754 25 186.754C36.6538 188.409 46.3946 187.171 54 185C53.063 185.715 52.2577 186.27 51.6484 186.578L49.3489 216Z" fill="#E5A98E"/>
<path d="M99.5182 58.4105C98.8072 58.8422 95.6312 62.761 97.677 70.3741C99.7227 77.9872 103.579 80.1964 106.678 78.4221C111.997 75.3763 112.61 69.721 111.588 65.8061C111.145 64.113 110.213 59.5835 107.087 57.7575C103.962 55.932 100.331 57.9163 99.5188 58.4105H99.5182Z" fill="url(#paint3_linear_40024479_11491)"/>
<path d="M103 58.1325C103 58.1325 105.859 60.1185 107.352 64.1178C109.01 68.5586 109.01 73 109.01 73C109.01 73 112.119 71.2621 110.565 65.759C109.622 62.4219 108.285 60.0943 106.523 58.9048C105.38 58.1332 103.734 57.7903 103 58.1325Z" fill="url(#paint4_linear_40024479_11491)"/>
<path d="M103.498 78.175C102.884 78.5752 100.031 82.3516 101.34 90.05C102.648 97.7483 105.526 101.188 108.358 99.6346C113.171 96.9947 113.382 87.3147 112.733 83.3566C112.084 79.3985 104.738 77.3675 103.498 78.175Z" fill="url(#paint5_linear_40024479_11491)"/>
<path d="M112.926 90.0355C112.533 86.9752 111.501 84.7128 109.772 83.3538C108.65 82.4727 106.885 81.8676 106 82.0249C106 82.0249 108.794 84.2776 109.671 88.0141C110.645 92.1629 109.773 96 109.773 96C109.773 96 113.577 95.0821 112.925 90.0349L112.926 90.0355Z" fill="url(#paint6_linear_40024479_11491)"/>
<path d="M112.332 106.23C109.854 105.358 104.736 106.704 105.011 114.844C105.286 122.985 108.864 130.254 112.717 127.347C116.571 124.439 117.397 120.078 116.846 115.717C116.295 111.355 114.808 107.103 112.332 106.23Z" fill="url(#paint7_linear_40024479_11491)"/>
<path d="M115.915 115.609C115.464 112.33 114.286 109.906 112.311 108.451C111.028 107.507 109.011 106.857 108 107.027C108 107.027 111.195 109.44 112.195 113.443C113.308 117.888 112.312 122 112.312 122C112.312 122 116.657 121.017 115.915 115.609Z" fill="url(#paint8_linear_40024479_11491)"/>
<defs>
<linearGradient id="paint0_linear_40024479_11491" x1="32.1588" y1="-6.60695" x2="50.0025" y2="18.289" gradientUnits="userSpaceOnUse">
<stop stop-color="#212121"/>
<stop offset="1" stop-color="#878787"/>
</linearGradient>
<linearGradient id="paint1_linear_40024479_11491" x1="6.22191" y1="46.9042" x2="43.8626" y2="174.452" gradientUnits="userSpaceOnUse">
<stop stop-color="#FFEDE6"/>
<stop offset="1" stop-color="#FFD7C6"/>
</linearGradient>
<linearGradient id="paint2_linear_40024479_11491" x1="8.25129" y1="53.1177" x2="18.3408" y2="75.8743" gradientUnits="userSpaceOnUse">
<stop stop-color="#FFEDE6"/>
<stop offset="1" stop-color="#FFD7C6"/>
</linearGradient>
<linearGradient id="paint3_linear_40024479_11491" x1="97.0442" y1="68.16" x2="106.793" y2="66.7399" gradientUnits="userSpaceOnUse">
<stop stop-color="#FFEDE6"/>
<stop offset="1" stop-color="#FFD7C6"/>
</linearGradient>
<linearGradient id="paint4_linear_40024479_11491" x1="98.6999" y1="68.0127" x2="110.296" y2="64.8449" gradientUnits="userSpaceOnUse">
<stop stop-color="#FFEDE6"/>
<stop offset="1" stop-color="#FFE4D9"/>
</linearGradient>
<linearGradient id="paint5_linear_40024479_11491" x1="101.035" y1="89.16" x2="108.894" y2="88.2443" gradientUnits="userSpaceOnUse">
<stop stop-color="#FFEDE6"/>
<stop offset="1" stop-color="#FFD7C6"/>
</linearGradient>
<linearGradient id="paint6_linear_40024479_11491" x1="102.237" y1="91.3452" x2="112.47" y2="88.7246" gradientUnits="userSpaceOnUse">
<stop stop-color="#FFEDE6"/>
<stop offset="1" stop-color="#FFE4D9"/>
</linearGradient>
<linearGradient id="paint7_linear_40024479_11491" x1="105.035" y1="117.16" x2="112.894" y2="116.244" gradientUnits="userSpaceOnUse">
<stop stop-color="#FFEDE6"/>
<stop offset="1" stop-color="#FFD7C6"/>
</linearGradient>
<linearGradient id="paint8_linear_40024479_11491" x1="103.7" y1="117.013" x2="115.296" y2="113.845" gradientUnits="userSpaceOnUse">
<stop stop-color="#FFEDE6"/>
<stop offset="1" stop-color="#FFE4D9"/>
</linearGradient>
</defs>
</svg>
