<svg width="20" height="20" viewBox="0 0 20 20" fill="none" xmlns="http://www.w3.org/2000/svg">
  <path d="M10 1.5L11.3 3.9C11.5 4.3 11.9 4.6 12.4 4.7L15.1 5.2L14.1 7.8C13.9 8.2 14 8.7 14.3 9L16.3 11L14.3 13C14 13.3 13.9 13.8 14.1 14.2L15.1 16.8L12.4 17.3C11.9 17.4 11.5 17.7 11.3 18.1L10 20.5L8.7 18.1C8.5 17.7 8.1 17.4 7.6 17.3L4.9 16.8L5.9 14.2C6.1 13.8 6 13.3 5.7 13L3.7 11L5.7 9C6 8.7 6.1 8.2 5.9 7.8L4.9 5.2L7.6 4.7C8.1 4.6 8.5 4.3 8.7 3.9L10 1.5Z" stroke="#A80689" stroke-width="1.5" stroke-linejoin="round"/>
  <circle cx="10" cy="11" r="2.5" stroke="#A80689" stroke-width="1.5"/>
</svg>
