<svg width="45" height="45" viewBox="0 0 45 45" fill="none" xmlns="http://www.w3.org/2000/svg">
<g clip-path="url(#clip0_40024146_19049)">
<path d="M44.8827 17.2621C44.5881 16.3509 43.7799 15.7037 42.8237 15.6175L29.8355 14.4382L24.6996 2.41708C24.3209 1.53609 23.4585 0.96582 22.5002 0.96582C21.542 0.96582 20.6795 1.53609 20.3008 2.41914L15.165 14.4382L2.17466 15.6175C1.22019 15.7057 0.414052 16.3509 0.117757 17.2621C-0.178538 18.1733 0.0950972 19.1727 0.817124 19.8027L10.6347 28.4128L7.73972 41.1651C7.52788 42.1028 7.89181 43.072 8.6698 43.6344C9.08798 43.9365 9.57723 44.0903 10.0706 44.0903C10.496 44.0903 10.9179 43.9757 11.2966 43.7491L22.5002 37.0531L33.6997 43.7491C34.5192 44.2421 35.5523 44.1971 36.3286 43.6344C37.1069 43.0703 37.4705 42.1007 37.2587 41.1651L34.3637 28.4128L44.1813 19.8044C44.9033 19.1727 45.179 18.175 44.8827 17.2621Z" fill="#E4E7EC"/>
</g>
<defs>
<clipPath id="clip0_40024146_19049">
<rect width="45" height="45" fill="white"/>
</clipPath>
</defs>
</svg>
