<svg width="82" height="82" viewBox="0 0 82 82" fill="none" xmlns="http://www.w3.org/2000/svg">
<path d="M32.8963 7.08052C51.0645 3.34097 68.8224 15.0293 72.5598 33.1867C76.2968 51.3439 64.5984 69.0944 46.4303 72.834C28.2623 76.5734 10.5046 64.8858 6.7671 46.7288C3.02979 28.5714 14.7282 10.8201 32.8963 7.08052Z" fill="url(#paint0_linear_40017810_186148)"/>
<path d="M34.7785 27.8091C35.1284 24.924 38.9658 24.1723 40.3785 26.7121L42.7076 30.8997C43.3394 32.0356 44.6307 32.6354 45.9062 32.3855L50.6098 31.464C53.4618 30.9052 55.3625 34.3225 53.3836 36.4508L50.1204 39.9603C49.2354 40.9121 49.064 42.3256 49.6958 43.4614L52.0257 47.6499C53.4385 50.1895 50.776 53.0533 48.1403 51.8291L43.793 49.8098C42.6143 49.2623 41.217 49.5361 40.332 50.488L37.0692 53.9978C35.0904 56.1263 31.5439 54.4791 31.8938 51.594L32.4707 46.8365C32.6272 45.5462 31.935 44.3019 30.7562 43.7544L26.4102 41.7361C23.7743 40.5119 24.2449 36.6299 27.097 36.0711L31.8002 35.1497C33.0756 34.8998 34.0451 33.857 34.2016 32.5668L34.7785 27.8091Z" fill="white"/>
<defs>
<linearGradient id="paint0_linear_40017810_186148" x1="25.8812" y1="-3.44514" x2="56.621" y2="69.1364" gradientUnits="userSpaceOnUse">
<stop stop-color="#A80689"/>
<stop offset="0.566234" stop-color="#A80689" stop-opacity="0.890104"/>
<stop offset="1" stop-color="#A80689" stop-opacity="0.5"/>
</linearGradient>
</defs>
</svg>
