<svg width="157" height="157" viewBox="0 0 157 157" fill="none" xmlns="http://www.w3.org/2000/svg">
<mask id="mask0_40017810_186112" style="mask-type:alpha" maskUnits="userSpaceOnUse" x="0" y="0" width="157" height="157">
<circle cx="78.5" cy="78.5" r="78.5" fill="url(#paint0_linear_40017810_186112)"/>
</mask>
<g mask="url(#mask0_40017810_186112)">
<g filter="url(#filter0_d_40017810_186112)">
<path d="M57.5704 67.1402C61.7043 63.3707 61.9741 56.9872 58.1729 52.8824C54.3717 48.7775 47.9391 48.5057 43.8052 52.2752C39.6713 56.0448 39.4015 62.4282 43.2027 66.5331C47.0038 70.6379 53.4365 70.9097 57.5704 67.1402Z" fill="#FFCBC4"/>
<g opacity="0.55" style="mix-blend-mode:soft-light">
<path d="M45.8852 53.9827C52.6611 53.8706 58.2491 59.231 58.3664 65.9553C58.3685 66.0797 58.3556 66.2006 58.3541 66.3243C59.9457 64.5097 60.9008 62.1342 60.8555 59.5383C60.7584 53.966 56.1277 49.524 50.5127 49.6168C46.7775 49.6785 43.5568 51.7373 41.8414 54.7451C43.1051 54.2816 44.4616 54.0061 45.8853 53.9827L45.8852 53.9827Z" fill="#FFCBC4"/>
</g>
<circle cx="81.7278" cy="139.171" r="51.1152" transform="rotate(2.41969 81.7278 139.171)" fill="url(#paint1_radial_40017810_186112)"/>
<path d="M116.031 66.1734C120.165 62.4039 120.435 56.0204 116.634 51.9156C112.833 47.8107 106.4 47.5389 102.266 51.3085C98.1322 55.078 97.8625 61.4614 101.664 65.5663C105.465 69.6711 111.897 69.9429 116.031 66.1734Z" fill="#FFCBC4"/>
<g opacity="0.55" style="mix-blend-mode:soft-light">
<path d="M113.749 52.8608C106.973 52.9728 101.575 58.5147 101.692 65.2389C101.694 65.3633 101.711 65.4838 101.717 65.6074C100.063 63.8463 99.026 61.5038 98.9807 58.908C98.8836 53.3356 103.357 48.7431 108.972 48.6504C112.707 48.5887 115.997 50.5398 117.817 53.4892C116.538 53.0676 115.172 52.8372 113.749 52.8608Z" fill="#FFCBC4"/>
</g>
<path d="M88.0198 107.6C92.4638 103.547 92.7537 96.6852 88.6675 92.2724C84.5812 87.8597 77.666 87.5675 73.2221 91.6198C68.7781 95.672 68.4881 102.534 72.5744 106.947C76.6607 111.36 83.5758 111.652 88.0198 107.6Z" fill="#FFCDC5"/>
<path d="M91.2258 80.7625L69.3669 81.124L69.6926 99.7896L91.5514 99.4282L91.2258 80.7625Z" fill="#FFCDC5"/>
<path d="M78.6923 88.2085C94.8238 88.8902 108.449 76.4657 109.126 60.4576C109.802 44.4495 97.2734 30.9198 81.142 30.2382C65.0105 29.5565 51.385 41.981 50.7085 57.9891C50.0321 73.9971 62.5609 87.5268 78.6923 88.2085Z" fill="url(#paint2_linear_40017810_186112)"/>
<g opacity="0.55" style="mix-blend-mode:soft-light">
<path d="M64.001 62.0097C67.8146 61.9467 70.8696 59.8064 70.8247 57.2293C70.7798 54.6521 67.6519 52.6139 63.8384 52.6769C60.0248 52.7399 56.9698 54.8802 57.0147 57.4574C57.0596 60.0346 60.1875 62.0727 64.001 62.0097Z" fill="black"/>
</g>
<g opacity="0.55" style="mix-blend-mode:soft-light">
<path d="M95.9191 61.4822C99.7327 61.4192 102.788 59.2788 102.743 56.7017C102.698 54.1245 99.5699 52.0864 95.7563 52.1495C91.9428 52.2125 88.8878 54.3529 88.9327 56.93C88.9777 59.5072 92.1056 61.5453 95.9191 61.4822Z" fill="black"/>
</g>
<path d="M70.8034 56.408C72.3651 56.3821 73.605 54.8649 73.5728 53.0191C73.5406 51.1733 72.2485 49.6979 70.6868 49.7237C69.1251 49.7496 67.8852 51.2668 67.9174 53.1126C67.9496 54.9584 69.2417 56.4338 70.8034 56.408Z" fill="#0F0D0F"/>
<path d="M88.9166 56.1102C90.4783 56.0844 91.7182 54.5671 91.686 52.7213C91.6539 50.8755 90.3618 49.4001 88.8001 49.4259C87.2384 49.4517 85.9985 50.969 86.0307 52.8148C86.0628 54.6606 87.3549 56.136 88.9166 56.1102Z" fill="#0F0D0F"/>
<path d="M73.2459 62.6482C72.1479 62.1752 71.1833 61.6489 70.3822 61.1544C70.0207 60.9314 69.9098 60.4601 70.1343 60.1016C70.3588 59.743 70.8339 59.6322 71.195 59.8563C72.8961 60.9057 75.5874 62.2268 78.7488 62.5604C82.3532 62.9405 85.7936 61.9681 88.9747 59.6701C89.3184 59.4217 89.8002 59.497 90.0508 59.8385C90.3014 60.1799 90.2256 60.658 89.8818 60.9064C83.5614 65.4725 77.4362 64.453 73.2459 62.6482Z" fill="#0F0D0F"/>
<path d="M76.5052 57.0102C76.4046 56.9669 76.3119 56.9014 76.2348 56.8144C75.9543 56.4982 75.983 56.0178 76.3004 55.7385C77.5358 54.6513 80.613 53.2289 83.4152 55.6313C83.7373 55.9073 83.7731 56.3899 83.4951 56.7094C83.2171 57.0289 82.7307 57.0639 82.4087 56.7879C79.9358 54.6686 77.4265 56.7928 77.3208 56.8844C77.0892 57.085 76.7701 57.124 76.5052 57.0099L76.5052 57.0102Z" fill="#0F0D0F"/>
<g filter="url(#filter1_di_40017810_186112)">
<path d="M79.4101 30.2165C67.0665 30.4205 56.6503 38.1918 52.552 48.9987C52.552 48.9987 65.6306 51.6384 79.5831 40.1379C93.9285 51.1707 106.908 48.1003 106.908 48.1003C102.435 37.435 91.7537 30.0125 79.4101 30.2165Z" fill="url(#paint3_linear_40017810_186112)"/>
</g>
<path d="M54.8259 95.709C54.8259 95.709 62.4008 90.1871 69.5086 89.4236L80.808 110.456L68.6161 127.088L54.826 95.7089L54.8259 95.709Z" fill="white"/>
<path d="M106.414 94.403C106.414 94.403 98.4401 89.5414 91.3085 89.0327L80.8081 110.455L93.6177 126.64L106.414 94.403Z" fill="white"/>
<path d="M55.3204 88.3623L82.6142 83.5879C86.0877 82.9804 89.4944 86.2904 90.0258 90.789L94.943 132.467C95.4404 136.683 92.5582 140.553 88.3766 141.285L69.4863 144.589C65.3046 145.321 61.2798 142.659 60.3165 138.524L50.7936 97.6517C49.7662 93.2398 51.847 88.9699 55.3204 88.3623Z" fill="url(#paint4_linear_40017810_186112)"/>
<path d="M83.5566 92.6228C84.9956 92.3711 85.9571 90.9948 85.7042 89.5486C85.4512 88.1025 84.0796 87.1343 82.6405 87.386C81.2015 87.6377 80.24 89.0141 80.4929 90.4602C80.7459 91.9063 82.1175 92.8746 83.5566 92.6228Z" fill="white"/>
<path d="M84.5527 100.421C85.9917 100.169 86.9532 98.7926 86.7003 97.3465C86.4473 95.9004 85.0757 94.9321 83.6366 95.1839C82.1976 95.4356 81.2361 96.812 81.489 98.2581C81.742 99.7042 83.1136 100.672 84.5527 100.421Z" fill="white"/>
<g filter="url(#filter2_di_40017810_186112)">
<path d="M33.7798 117.61C33.7798 117.61 41.0264 104.525 51.8562 102.356L54.2158 112.444L40.8182 122.668L33.7798 117.61Z" fill="url(#paint5_linear_40017810_186112)"/>
<path d="M53.2121 108.379C42.4972 110.294 35.5964 122.703 36.8336 136.907L66.9086 131.531C73.0258 130.438 77.1653 124.85 76.0719 118.732C73.2826 103.128 64.7927 106.309 53.2121 108.379Z" fill="url(#paint6_linear_40017810_186112)"/>
</g>
<g filter="url(#filter3_di_40017810_186112)">
<path d="M32.5096 104.327L13.5828 123.235L20.7596 145.54L56.0043 135.536C45.4085 114.406 32.5096 104.327 32.5096 104.327Z" fill="url(#paint7_radial_40017810_186112)"/>
</g>
</g>
</g>
<defs>
<filter id="filter0_d_40017810_186112" x="-6.41724" y="14.2109" width="159.261" height="200.076" filterUnits="userSpaceOnUse" color-interpolation-filters="sRGB">
<feFlood flood-opacity="0" result="BackgroundImageFix"/>
<feColorMatrix in="SourceAlpha" type="matrix" values="0 0 0 0 0 0 0 0 0 0 0 0 0 0 0 0 0 0 127 0" result="hardAlpha"/>
<feOffset dy="4"/>
<feGaussianBlur stdDeviation="10"/>
<feComposite in2="hardAlpha" operator="out"/>
<feColorMatrix type="matrix" values="0 0 0 0 0.0303073 0 0 0 0 0.301363 0 0 0 0 0.171728 0 0 0 0.4 0"/>
<feBlend mode="normal" in2="BackgroundImageFix" result="effect1_dropShadow_40017810_186112"/>
<feBlend mode="normal" in="SourceGraphic" in2="effect1_dropShadow_40017810_186112" result="shape"/>
</filter>
<filter id="filter1_di_40017810_186112" x="48.552" y="30.2129" width="62.3557" height="27.0469" filterUnits="userSpaceOnUse" color-interpolation-filters="sRGB">
<feFlood flood-opacity="0" result="BackgroundImageFix"/>
<feColorMatrix in="SourceAlpha" type="matrix" values="0 0 0 0 0 0 0 0 0 0 0 0 0 0 0 0 0 0 127 0" result="hardAlpha"/>
<feOffset dy="4"/>
<feGaussianBlur stdDeviation="2"/>
<feComposite in2="hardAlpha" operator="out"/>
<feColorMatrix type="matrix" values="0 0 0 0 0.934965 0 0 0 0 0.694218 0 0 0 0 0.890427 0 0 0 0.2 0"/>
<feBlend mode="normal" in2="BackgroundImageFix" result="effect1_dropShadow_40017810_186112"/>
<feBlend mode="normal" in="SourceGraphic" in2="effect1_dropShadow_40017810_186112" result="shape"/>
<feColorMatrix in="SourceAlpha" type="matrix" values="0 0 0 0 0 0 0 0 0 0 0 0 0 0 0 0 0 0 127 0" result="hardAlpha"/>
<feOffset dy="1"/>
<feGaussianBlur stdDeviation="2"/>
<feComposite in2="hardAlpha" operator="arithmetic" k2="-1" k3="1"/>
<feColorMatrix type="matrix" values="0 0 0 0 1 0 0 0 0 1 0 0 0 0 1 0 0 0 0.5 0"/>
<feBlend mode="normal" in2="shape" result="effect2_innerShadow_40017810_186112"/>
</filter>
<filter id="filter2_di_40017810_186112" x="29.7798" y="102.356" width="50.4673" height="42.5508" filterUnits="userSpaceOnUse" color-interpolation-filters="sRGB">
<feFlood flood-opacity="0" result="BackgroundImageFix"/>
<feColorMatrix in="SourceAlpha" type="matrix" values="0 0 0 0 0 0 0 0 0 0 0 0 0 0 0 0 0 0 127 0" result="hardAlpha"/>
<feOffset dy="4"/>
<feGaussianBlur stdDeviation="2"/>
<feComposite in2="hardAlpha" operator="out"/>
<feColorMatrix type="matrix" values="0 0 0 0 0.934965 0 0 0 0 0.694218 0 0 0 0 0.890427 0 0 0 0.2 0"/>
<feBlend mode="normal" in2="BackgroundImageFix" result="effect1_dropShadow_40017810_186112"/>
<feBlend mode="normal" in="SourceGraphic" in2="effect1_dropShadow_40017810_186112" result="shape"/>
<feColorMatrix in="SourceAlpha" type="matrix" values="0 0 0 0 0 0 0 0 0 0 0 0 0 0 0 0 0 0 127 0" result="hardAlpha"/>
<feOffset dy="1"/>
<feGaussianBlur stdDeviation="2"/>
<feComposite in2="hardAlpha" operator="arithmetic" k2="-1" k3="1"/>
<feColorMatrix type="matrix" values="0 0 0 0 1 0 0 0 0 1 0 0 0 0 1 0 0 0 0.5 0"/>
<feBlend mode="normal" in2="shape" result="effect2_innerShadow_40017810_186112"/>
</filter>
<filter id="filter3_di_40017810_186112" x="9.58276" y="104.326" width="50.4216" height="49.2139" filterUnits="userSpaceOnUse" color-interpolation-filters="sRGB">
<feFlood flood-opacity="0" result="BackgroundImageFix"/>
<feColorMatrix in="SourceAlpha" type="matrix" values="0 0 0 0 0 0 0 0 0 0 0 0 0 0 0 0 0 0 127 0" result="hardAlpha"/>
<feOffset dy="4"/>
<feGaussianBlur stdDeviation="2"/>
<feComposite in2="hardAlpha" operator="out"/>
<feColorMatrix type="matrix" values="0 0 0 0 0.934965 0 0 0 0 0.694218 0 0 0 0 0.890427 0 0 0 0.2 0"/>
<feBlend mode="normal" in2="BackgroundImageFix" result="effect1_dropShadow_40017810_186112"/>
<feBlend mode="normal" in="SourceGraphic" in2="effect1_dropShadow_40017810_186112" result="shape"/>
<feColorMatrix in="SourceAlpha" type="matrix" values="0 0 0 0 0 0 0 0 0 0 0 0 0 0 0 0 0 0 127 0" result="hardAlpha"/>
<feOffset dy="1"/>
<feGaussianBlur stdDeviation="2"/>
<feComposite in2="hardAlpha" operator="arithmetic" k2="-1" k3="1"/>
<feColorMatrix type="matrix" values="0 0 0 0 1 0 0 0 0 1 0 0 0 0 1 0 0 0 0.5 0"/>
<feBlend mode="normal" in2="shape" result="effect2_innerShadow_40017810_186112"/>
</filter>
<linearGradient id="paint0_linear_40017810_186112" x1="78.5" y1="0" x2="78.5" y2="157" gradientUnits="userSpaceOnUse">
<stop stop-color="#C7FFDA"/>
<stop offset="1" stop-color="#A2E8B9"/>
</linearGradient>
<radialGradient id="paint1_radial_40017810_186112" cx="0" cy="0" r="1" gradientUnits="userSpaceOnUse" gradientTransform="translate(81.1782 85.9947) rotate(90) scale(77.4973 148.997)">
<stop stop-color="#FF44DB"/>
<stop offset="1" stop-color="#A80689"/>
</radialGradient>
<linearGradient id="paint2_linear_40017810_186112" x1="81.142" y1="30.2382" x2="78.6923" y2="88.2085" gradientUnits="userSpaceOnUse">
<stop stop-color="#FFEDE6"/>
<stop offset="1" stop-color="#FFD7C6"/>
</linearGradient>
<linearGradient id="paint3_linear_40017810_186112" x1="80.5047" y1="30.211" x2="79.6566" y2="50.2815" gradientUnits="userSpaceOnUse">
<stop stop-color="#312131"/>
<stop offset="1" stop-color="#0F0D0F"/>
</linearGradient>
<linearGradient id="paint4_linear_40017810_186112" x1="68.9674" y1="85.9751" x2="78.9314" y2="142.937" gradientUnits="userSpaceOnUse">
<stop stop-color="#3F353F"/>
<stop offset="1" stop-color="#2A222A"/>
</linearGradient>
<linearGradient id="paint5_linear_40017810_186112" x1="42.4115" y1="103.676" x2="44.9842" y2="122.086" gradientUnits="userSpaceOnUse">
<stop stop-color="#FFEDE6"/>
<stop offset="1" stop-color="#FFD7C6"/>
</linearGradient>
<linearGradient id="paint6_linear_40017810_186112" x1="52.9765" y1="108.372" x2="57.4194" y2="133.228" gradientUnits="userSpaceOnUse">
<stop stop-color="#FFEDE6"/>
<stop offset="1" stop-color="#FFD7C6"/>
</linearGradient>
<radialGradient id="paint7_radial_40017810_186112" cx="0" cy="0" r="1" gradientUnits="userSpaceOnUse" gradientTransform="translate(27.6466 104.943) rotate(74.154) scale(27.6228 54.5829)">
<stop stop-color="#FF44DB"/>
<stop offset="1" stop-color="#A80689"/>
</radialGradient>
</defs>
</svg>
