<svg width="102" height="57" viewBox="0 0 102 57" fill="none" xmlns="http://www.w3.org/2000/svg">
<path d="M22.1205 46.6502L19.6087 41.2599C8.68893 40.7217 0 31.6977 0 20.6431C0 9.2419 9.24148 0 20.6409 0H81.3592C92.7591 0 102 9.2419 102 20.6431C102 32.0442 92.7591 41.2861 81.3592 41.2861H36.5749L32.1808 48.4549L26.9441 57L22.1205 46.6502ZM30.7257 15.254C27.7496 15.254 25.3372 17.6666 25.3372 20.6431C25.3372 23.6195 27.7496 26.0321 30.7257 26.0321C33.7018 26.0321 36.1142 23.6195 36.1142 20.6431C36.1142 17.6666 33.7018 15.254 30.7257 15.254ZM71.2739 26.0321C74.25 26.0321 76.6624 23.6195 76.6624 20.6431C76.6624 17.6666 74.25 15.254 71.2739 15.254C68.2978 15.254 65.8854 17.6666 65.8854 20.6431C65.8854 23.6195 68.2978 26.0321 71.2739 26.0321ZM51.0003 26.0321C53.9758 26.0321 56.3888 23.6195 56.3888 20.6431C56.3888 17.6666 53.9758 15.254 51.0003 15.254C48.0248 15.254 45.6106 17.6666 45.6106 20.6431C45.6106 23.6195 48.0242 26.0321 51.0003 26.0321Z" fill="url(#paint0_linear_40018038_97756)"/>
<defs>
<linearGradient id="paint0_linear_40018038_97756" x1="51" y1="0" x2="51" y2="57" gradientUnits="userSpaceOnUse">
<stop stop-color="#3A71F6"/>
<stop offset="1" stop-color="#A0BCFF" stop-opacity="0.5"/>
</linearGradient>
</defs>
</svg>
