<svg width="200" height="200" viewBox="0 0 200 200" fill="none" xmlns="http://www.w3.org/2000/svg">
<mask id="mask0_40024479_11474" style="mask-type:alpha" maskUnits="userSpaceOnUse" x="0" y="0" width="200" height="200">
<circle cx="100" cy="100" r="100" fill="url(#paint0_linear_40024479_11474)"/>
</mask>
<g mask="url(#mask0_40024479_11474)">
<path d="M161.453 91.672C157.967 91.5202 151.345 93.6877 145.856 95.7583C139.531 98.1443 133.39 100.943 133.841 100.195C134.396 99.2729 143.679 94.3001 151.124 90.4843C154.978 88.5094 158.006 85.7761 159.168 84.8194C163.125 81.5664 162.7 71.6126 159.259 68.6466C155.819 65.6807 152.548 68.007 146.91 70.8229C143.827 72.3626 140.577 74.1303 137.7 75.7502C141.693 73.3217 146.401 70.3215 150.382 67.404C153.516 65.1072 156.906 63.121 158.436 61.2459C164.323 54.0289 158.254 45.9744 155.694 44.2505C153.134 42.5271 148.343 45.5698 141.886 50.1333C134.051 55.6707 125.562 62.0851 125.286 61.4172C124.782 60.1952 140.232 48.1991 146.371 42.8797C149.97 39.759 154.871 29.4485 155.42 23.6914C155.875 18.9141 157.141 13.1381 148.735 12.0614C140.33 10.9866 138.163 24.3068 131.31 29.3983C124.458 34.4897 75.7782 64.7452 75.7782 64.7452C75.7782 64.7452 56.7933 105.84 56.2633 120.482C55.7357 135.124 56.7253 144.167 56.7253 144.167L39 210H101.247L104.253 170.611C106.896 169.241 113.156 163.199 118.957 158.456C124.757 153.714 139.037 129.119 140.089 126.728C140.504 125.78 143.787 123.386 146.918 120.181C151.699 115.286 159.784 111.274 162.823 109.217C168.491 105.379 165.657 91.8557 161.452 91.6732L161.453 91.672Z" fill="url(#paint1_linear_40024479_11474)"/>
</g>
<defs>
<linearGradient id="paint0_linear_40024479_11474" x1="100" y1="0" x2="100" y2="200" gradientUnits="userSpaceOnUse">
<stop stop-color="#C7FFDA"/>
<stop offset="1" stop-color="#A2E8B9"/>
</linearGradient>
<linearGradient id="paint1_linear_40024479_11474" x1="51.3128" y1="22.6497" x2="80.3436" y2="200.831" gradientUnits="userSpaceOnUse">
<stop stop-color="#FFEDE6"/>
<stop offset="1" stop-color="#FFD7C6"/>
</linearGradient>
</defs>
</svg>
