<svg width="112" height="174" viewBox="0 0 112 174" fill="none" xmlns="http://www.w3.org/2000/svg">
<path d="M9.62059 13.0188L68.8438 1.70915C69.6657 1.55206 70.4842 1.49088 71.2907 1.51323L72.9922 1.18906C79.0572 0.0312085 84.9788 4.31196 86.192 10.7337L111.862 146.677C112.992 152.667 106.814 158.141 106.814 158.141C106.814 158.141 104.194 161.522 99.2032 162.487C94.2133 163.451 39.9771 173.798 39.9771 173.798C33.5097 175.034 27.1964 170.468 25.9044 163.621L0.233255 27.6772C-1.05928 20.8284 3.15079 14.2537 9.62059 13.0188Z" fill="url(#paint0_linear_40024479_11478)"/>
<path d="M43.3284 171.811C37.2255 172.971 31.2693 168.665 30.051 162.203L4.22004 25.4025C3.00053 18.9415 6.97392 12.7387 13.0733 11.5723L72.6682 0.190251C78.7711 -0.974896 84.7297 3.33283 85.9504 9.79442L111.78 146.594C113 153.059 109.027 159.26 102.923 160.424L43.3284 171.81V171.811Z" fill="#383838"/>
<path d="M105.886 145.852C106.559 149.437 104.178 152.934 100.596 153.623L42.0623 164.881C38.4802 165.57 34.9998 163.201 34.3271 159.616L9.11358 25.1499C8.4415 21.5652 10.822 18.0684 14.4041 17.3791L72.9365 6.11926C76.5186 5.43001 79.999 7.79963 80.6717 11.3844L105.887 145.853L105.886 145.852Z" fill="#E6E6E6"/>
<path d="M105.886 145.852C106.559 149.437 104.178 152.934 100.596 153.623L42.0623 164.881C38.4802 165.57 34.9998 163.201 34.3271 159.616L9.11358 25.1499C8.4415 21.5652 10.822 18.0684 14.4041 17.3791L72.9365 6.11926C76.5186 5.43001 79.999 7.79963 80.6717 11.3844L105.887 145.853L105.886 145.852Z" fill="white"/>
<defs>
<linearGradient id="paint0_linear_40024479_11478" x1="15.3259" y1="11.9439" x2="36.4986" y2="125.06" gradientUnits="userSpaceOnUse">
<stop stop-color="#3F3F3F"/>
<stop offset="1" stop-color="#2D2D2D"/>
</linearGradient>
</defs>
</svg>
