<svg width="108" height="172" viewBox="0 0 108 172" fill="none" xmlns="http://www.w3.org/2000/svg">
<g opacity="0.15">
<mask id="mask0_40024479_11483" style="mask-type:luminance" maskUnits="userSpaceOnUse" x="0" y="0" width="108" height="172">
<path d="M39.035 171.426C32.9776 172.583 27.0658 168.287 25.8566 161.84L0.218395 25.3456C-0.992015 18.8991 2.95173 12.7101 9.00556 11.5464L68.1558 0.189825C74.2132 -0.972711 80.1273 3.32536 81.3389 9.77247L106.975 146.266C108.187 152.716 104.244 158.903 98.1846 160.064L39.035 171.425V171.426Z" fill="white"/>
</mask>
<g mask="url(#mask0_40024479_11483)">
<path d="M111.657 168.662L124.499 139.866L-31.1693 59.417L-44.0103 88.2134L111.657 168.662Z" fill="white"/>
<path d="M139.295 106.685L149.484 83.838L-6.18277 3.38672L-16.3733 26.2369L139.295 106.685Z" fill="white"/>
<path d="M127.988 132.038L132.454 122.023L-23.2131 41.5732L-27.6807 51.5907L127.988 132.038Z" fill="white"/>
</g>
</g>
</svg>
