<svg width="142" height="142" viewBox="0 0 142 142" fill="none" xmlns="http://www.w3.org/2000/svg">
<g filter="url(#filter0_dd_40024479_11502)">
<path d="M42.5454 55.5459C42.5454 40.0819 55.0814 27.5459 70.5454 27.5459C86.0094 27.5459 98.5454 40.0819 98.5454 55.5459C98.5454 71.0099 86.0094 83.5459 70.5454 83.5459C55.0814 83.5459 42.5454 71.0099 42.5454 55.5459Z" fill="white" shape-rendering="crispEdges"/>
<circle cx="70.5454" cy="55.5459" r="40" fill="#ECFDF3"/>
<circle opacity="0.8" cx="70.5454" cy="55.5459" r="32" fill="#17B26A"/>
<g filter="url(#filter1_dd_40024479_11502)">
<path d="M79.138 44.8067L66.7131 57.1353L61.9528 52.411C61.1385 51.604 60.0348 51.1508 58.884 51.1508C57.7332 51.1508 56.6295 51.604 55.8152 52.411C55.0021 53.2191 54.5454 54.3145 54.5454 55.4566C54.5454 56.5986 55.0021 57.694 55.8152 58.5022L63.3735 66.0033C63.4546 66.0997 63.5403 66.1938 63.6318 66.2846C64.4505 67.0924 65.5581 67.5459 66.7126 67.5459C67.8671 67.5459 68.9747 67.0924 69.7934 66.2846C69.8848 66.1938 69.9705 66.0997 70.0517 66.0033L85.2756 50.8967C86.0887 50.0885 86.5454 48.9932 86.5454 47.8511C86.5454 46.7091 86.0887 45.6137 85.2756 44.8055C84.4612 43.9987 83.3573 43.5457 82.2066 43.5459C81.0558 43.5461 79.9522 43.9996 79.138 44.8067Z" fill="url(#paint0_linear_40024479_11502)" shape-rendering="crispEdges"/>
</g>
</g>
<defs>
<filter id="filter0_dd_40024479_11502" x="-4.3869e-05" y="0.000444412" width="141.091" height="141.091" filterUnits="userSpaceOnUse" color-interpolation-filters="sRGB">
<feFlood flood-opacity="0" result="BackgroundImageFix"/>
<feColorMatrix in="SourceAlpha" type="matrix" values="0 0 0 0 0 0 0 0 0 0 0 0 0 0 0 0 0 0 127 0" result="hardAlpha"/>
<feOffset dy="15"/>
<feGaussianBlur stdDeviation="15.2727"/>
<feColorMatrix type="matrix" values="0 0 0 0 0.0121115 0 0 0 0 0.594389 0 0 0 0 0.110803 0 0 0 0.15 0"/>
<feBlend mode="normal" in2="BackgroundImageFix" result="effect1_dropShadow_40024479_11502"/>
<feColorMatrix in="SourceAlpha" type="matrix" values="0 0 0 0 0 0 0 0 0 0 0 0 0 0 0 0 0 0 127 0" result="hardAlpha"/>
<feOffset dy="2"/>
<feGaussianBlur stdDeviation="7.5"/>
<feComposite in2="hardAlpha" operator="out"/>
<feColorMatrix type="matrix" values="0 0 0 0 0 0 0 0 0 0.46383 0 0 0 0 0.261839 0 0 0 0.3 0"/>
<feBlend mode="normal" in2="effect1_dropShadow_40024479_11502" result="effect2_dropShadow_40024479_11502"/>
<feBlend mode="normal" in="SourceGraphic" in2="effect2_dropShadow_40024479_11502" result="shape"/>
</filter>
<filter id="filter1_dd_40024479_11502" x="42.5454" y="35.5459" width="56" height="48" filterUnits="userSpaceOnUse" color-interpolation-filters="sRGB">
<feFlood flood-opacity="0" result="BackgroundImageFix"/>
<feColorMatrix in="SourceAlpha" type="matrix" values="0 0 0 0 0 0 0 0 0 0 0 0 0 0 0 0 0 0 127 0" result="hardAlpha"/>
<feOffset dy="2"/>
<feGaussianBlur stdDeviation="4"/>
<feComposite in2="hardAlpha" operator="out"/>
<feColorMatrix type="matrix" values="0 0 0 0 0.238969 0 0 0 0 0.601807 0 0 0 0 0.405517 0 0 0 0.4 0"/>
<feBlend mode="normal" in2="BackgroundImageFix" result="effect1_dropShadow_40024479_11502"/>
<feColorMatrix in="SourceAlpha" type="matrix" values="0 0 0 0 0 0 0 0 0 0 0 0 0 0 0 0 0 0 127 0" result="hardAlpha"/>
<feOffset dy="4"/>
<feGaussianBlur stdDeviation="6"/>
<feComposite in2="hardAlpha" operator="out"/>
<feColorMatrix type="matrix" values="0 0 0 0 0.0623882 0 0 0 0 0.373347 0 0 0 0 0.204348 0 0 0 0.15 0"/>
<feBlend mode="normal" in2="effect1_dropShadow_40024479_11502" result="effect2_dropShadow_40024479_11502"/>
<feBlend mode="normal" in="SourceGraphic" in2="effect2_dropShadow_40024479_11502" result="shape"/>
</filter>
<linearGradient id="paint0_linear_40024479_11502" x1="70.5454" y1="43.5459" x2="66.5454" y2="97.0459" gradientUnits="userSpaceOnUse">
<stop stop-color="white"/>
<stop offset="1" stop-color="white" stop-opacity="0"/>
</linearGradient>
</defs>
</svg>
