<svg width="24" height="24" viewBox="0 0 24 24" fill="none" xmlns="http://www.w3.org/2000/svg">
<path d="M12 23C18.0751 23 23 18.0751 23 12C23 5.92487 18.0751 1 12 1C5.92487 1 1 5.92487 1 12C1 18.0751 5.92487 23 12 23Z" stroke="#667085" stroke-width="1.5" stroke-linecap="round" stroke-linejoin="round"/>
<path fill-rule="evenodd" clip-rule="evenodd" d="M9.21735 19.1523C9.45128 19.1525 9.64109 19.3422 9.64117 19.5762C9.64117 19.8102 9.45133 19.9999 9.21735 20C8.98324 20 8.79352 19.8103 8.79352 19.5762C8.7936 19.3421 8.98329 19.1523 9.21735 19.1523ZM9.84918 5.08789C9.94084 5.13592 9.9761 5.24916 9.92828 5.34082L5.49567 13.8057L10.9654 13.8701C11.0306 13.871 11.0912 13.9057 11.1246 13.9619C11.158 14.0183 11.1594 14.0887 11.1285 14.1465L11.1275 14.1455L8.5611 18.9453L8.61285 19.1113L8.38434 19.5479L8.2984 19.502L8.22321 19.6494C8.21527 19.6648 8.20016 19.6742 8.18414 19.6758C8.1752 19.6765 8.16535 19.6753 8.1568 19.6709C8.13323 19.6582 8.12397 19.6284 8.13629 19.6045L8.21149 19.457L8.15485 19.4268L8.0318 19.666C8.02335 19.6823 8.00777 19.6926 7.99078 19.6943C7.98114 19.6952 7.9707 19.6933 7.96149 19.6885C7.93619 19.675 7.92598 19.6437 7.93903 19.6182L8.06207 19.3779L8.00641 19.3486L7.93512 19.4883C7.9272 19.5036 7.91197 19.513 7.89606 19.5146C7.88705 19.5154 7.87735 19.5132 7.86871 19.5088C7.84492 19.4962 7.83485 19.4664 7.84723 19.4424L7.91852 19.3027L7.83551 19.2598L8.065 18.8232L8.22809 18.7715L10.6519 14.2412L5.18512 14.1777C5.12028 14.1768 5.06038 14.1428 5.02692 14.0869C4.99343 14.0309 4.99086 13.961 5.02106 13.9033L9.59625 5.16699V5.16602C9.64449 5.07481 9.75763 5.03993 9.84918 5.08789ZM9.73492 18.3047C9.96899 18.3047 10.1587 18.4945 10.1588 18.7285C10.1588 18.9626 9.96903 19.1523 9.73492 19.1523C9.50085 19.1523 9.3111 18.9626 9.3111 18.7285C9.31116 18.4945 9.50089 18.3047 9.73492 18.3047ZM10.692 18.3047C10.926 18.3047 11.1157 18.4945 11.1158 18.7285C11.1158 18.9626 10.9261 19.1523 10.692 19.1523C10.458 19.1522 10.2681 18.9625 10.2681 18.7285C10.2682 18.4946 10.458 18.3049 10.692 18.3047ZM10.2164 17.3623C10.4505 17.3623 10.6412 17.552 10.6412 17.7861C10.6412 18.0202 10.4505 18.21 10.2164 18.21C9.98248 18.2097 9.79256 18.0201 9.79254 17.7861C9.79254 17.5522 9.98247 17.3625 10.2164 17.3623ZM11.1617 17.3623C11.3956 17.3625 11.5855 17.5521 11.5855 17.7861C11.5855 18.0201 11.3956 18.2098 11.1617 18.21C10.9276 18.21 10.7379 18.0202 10.7379 17.7861C10.7379 17.552 10.9276 17.3623 11.1617 17.3623ZM10.692 16.4199C10.9261 16.4199 11.1158 16.6096 11.1158 16.8438C11.1157 17.0778 10.926 17.2676 10.692 17.2676C10.458 17.2674 10.2682 17.0777 10.2681 16.8438C10.2681 16.6097 10.458 16.4201 10.692 16.4199ZM11.6343 16.4199C11.8684 16.4199 12.0582 16.6096 12.0582 16.8438C12.0581 17.0778 11.8684 17.2676 11.6343 17.2676C11.4004 17.2674 11.2105 17.0777 11.2105 16.8438C11.2105 16.6098 11.4004 16.4201 11.6343 16.4199ZM12.5855 16.4199C12.8196 16.4199 13.0093 16.6096 13.0093 16.8438C13.0093 17.0778 12.8196 17.2676 12.5855 17.2676C12.3515 17.2675 12.1617 17.0778 12.1617 16.8438C12.1617 16.6097 12.3514 16.42 12.5855 16.4199ZM11.1617 15.4453C11.3955 15.4455 11.5854 15.6353 11.5855 15.8691C11.5855 16.1031 11.3956 16.2928 11.1617 16.293C10.9276 16.293 10.7379 16.1032 10.7379 15.8691C10.738 15.6352 10.9277 15.4453 11.1617 15.4453ZM12.1187 15.4453C12.3527 15.4454 12.5424 15.6352 12.5425 15.8691C12.5425 16.1032 12.3528 16.2929 12.1187 16.293C11.8846 16.293 11.6949 16.1032 11.6949 15.8691C11.695 15.6352 11.8847 15.4453 12.1187 15.4453ZM13.065 15.4453C13.299 15.4453 13.4887 15.6352 13.4888 15.8691C13.4888 16.1032 13.2991 16.293 13.065 16.293C12.831 16.2928 12.6412 16.1032 12.6412 15.8691C12.6413 15.6353 12.8311 15.4455 13.065 15.4453ZM14.8004 8.18555C14.8623 8.07973 14.9979 8.04364 15.1041 8.10547C15.2099 8.16737 15.2456 8.30317 15.1841 8.40918L14.2808 9.95996H19.0181C19.0982 9.96013 19.1731 10.0034 19.2125 10.0732C19.2518 10.1431 19.2499 10.2293 19.2086 10.2979L16.0806 15.4658C16.0584 15.5025 16.0263 15.5297 15.9908 15.5479V15.5732H15.8902C15.851 15.5732 15.8108 15.5627 15.775 15.541C15.67 15.4773 15.6362 15.3404 15.6998 15.2354L18.6236 10.4053H13.8931C13.8137 10.4051 13.7404 10.362 13.7007 10.293C13.6612 10.224 13.6616 10.139 13.7017 10.0703L14.8004 8.18555ZM11.6343 14.5029C11.8684 14.5029 12.058 14.6928 12.0582 14.9268C12.0582 15.1609 11.8684 15.3506 11.6343 15.3506C11.4004 15.3504 11.2105 15.1608 11.2105 14.9268C11.2107 14.6929 11.4005 14.5031 11.6343 14.5029ZM12.5855 14.5029C12.8195 14.5029 13.0092 14.6928 13.0093 14.9268C13.0093 15.1609 12.8196 15.3506 12.5855 15.3506C12.3514 15.3506 12.1617 15.1608 12.1617 14.9268C12.1618 14.6928 12.3515 14.503 12.5855 14.5029ZM13.5406 14.5029C13.7746 14.5029 13.9643 14.6928 13.9644 14.9268C13.9644 15.1609 13.7747 15.3506 13.5406 15.3506C13.3065 15.3505 13.1168 15.1608 13.1168 14.9268C13.1169 14.6928 13.3066 14.503 13.5406 14.5029ZM14.4957 14.5029C14.7297 14.5029 14.9193 14.6928 14.9195 14.9268C14.9195 15.1609 14.7298 15.3506 14.4957 15.3506C14.2617 15.3505 14.0718 15.1608 14.0718 14.9268C14.072 14.6928 14.2617 14.503 14.4957 14.5029ZM12.1187 13.5605C12.3527 13.5606 12.5425 13.7504 12.5425 13.9844C12.5425 14.2184 12.3528 14.4081 12.1187 14.4082C11.8846 14.4082 11.6949 14.2185 11.6949 13.9844C11.6949 13.7503 11.8846 13.5605 12.1187 13.5605ZM13.065 13.5605C13.2991 13.5605 13.4888 13.7503 13.4888 13.9844C13.4888 14.2185 13.2991 14.4082 13.065 14.4082C12.831 14.4081 12.6412 14.2184 12.6412 13.9844C12.6412 13.7504 12.8311 13.5607 13.065 13.5605ZM14.0181 13.5605C14.2522 13.5605 14.4419 13.7503 14.442 13.9844C14.442 14.2185 14.2522 14.4082 14.0181 14.4082C13.7841 14.4081 13.5943 14.2184 13.5943 13.9844C13.5944 13.7504 13.7841 13.5606 14.0181 13.5605ZM14.9732 13.5605C15.2073 13.5605 15.397 13.7503 15.397 13.9844C15.397 14.2185 15.2073 14.4082 14.9732 14.4082C14.7392 14.4081 14.5494 14.2184 14.5494 13.9844C14.5494 13.7504 14.7392 13.5607 14.9732 13.5605ZM6.88238 12.5869C7.11645 12.587 7.30621 12.7767 7.30621 13.0107C7.30601 13.2446 7.11632 13.4345 6.88238 13.4346C6.64841 13.4346 6.45876 13.2447 6.45856 13.0107C6.45856 12.7766 6.64828 12.5869 6.88238 12.5869ZM7.83746 12.5869C8.07155 12.5869 8.26129 12.7766 8.26129 13.0107C8.26109 13.2447 8.07143 13.4346 7.83746 13.4346C7.60348 13.4346 7.41383 13.2447 7.41363 13.0107C7.41363 12.7766 7.60336 12.5869 7.83746 12.5869ZM8.79254 12.5869C9.02664 12.5869 9.21637 12.7766 9.21637 13.0107C9.21617 13.2447 9.02652 13.4346 8.79254 13.4346C8.55858 13.4345 8.36891 13.2447 8.36871 13.0107C8.36871 12.7767 8.55846 12.5869 8.79254 12.5869ZM9.74176 12.5869C9.97568 12.5871 10.1656 12.7768 10.1656 13.0107C10.1654 13.2445 9.97556 13.4344 9.74176 13.4346C9.50778 13.4346 9.31813 13.2447 9.31793 13.0107C9.31793 12.7766 9.50766 12.5869 9.74176 12.5869ZM10.692 12.5869C10.9261 12.5869 11.1158 12.7766 11.1158 13.0107C11.1156 13.2447 10.9259 13.4346 10.692 13.4346C10.4581 13.4344 10.2683 13.2446 10.2681 13.0107C10.2681 12.7767 10.458 12.5871 10.692 12.5869ZM11.6451 12.5869C11.8792 12.5869 12.0689 12.7766 12.0689 13.0107C12.0687 13.2447 11.8791 13.4346 11.6451 13.4346C11.4112 13.4345 11.2215 13.2446 11.2213 13.0107C11.2213 12.7767 11.4111 12.587 11.6451 12.5869ZM12.5923 12.5869C12.8263 12.5871 13.0162 12.7768 13.0162 13.0107C13.016 13.2445 12.8261 13.4343 12.5923 13.4346C12.3584 13.4346 12.1687 13.2447 12.1685 13.0107C12.1685 12.7766 12.3582 12.5869 12.5923 12.5869ZM13.5474 12.5869C13.7814 12.5871 13.9713 12.7768 13.9713 13.0107C13.9711 13.2446 13.7812 13.4344 13.5474 13.4346C13.3134 13.4346 13.1238 13.2447 13.1236 13.0107C13.1236 12.7766 13.3133 12.5869 13.5474 12.5869ZM14.5005 12.5869C14.7344 12.5872 14.9244 12.7768 14.9244 13.0107C14.9242 13.2445 14.7343 13.4343 14.5005 13.4346C14.2666 13.4346 14.0759 13.2447 14.0757 13.0107C14.0757 12.7766 14.2664 12.5869 14.5005 12.5869ZM15.4556 12.5869C15.6896 12.5871 15.8795 12.7768 15.8795 13.0107C15.8793 13.2445 15.6894 13.4344 15.4556 13.4346C15.2216 13.4346 15.032 13.2447 15.0318 13.0107C15.0318 12.7766 15.2215 12.5869 15.4556 12.5869ZM16.4039 12.5869C16.638 12.5869 16.8277 12.7766 16.8277 13.0107C16.8275 13.2447 16.6378 13.4346 16.4039 13.4346C16.17 13.4345 15.9802 13.2446 15.98 13.0107C15.98 12.7767 16.1698 12.587 16.4039 12.5869ZM7.35602 11.6436C7.58979 11.6438 7.7796 11.8336 7.77985 12.0674C7.77985 12.3014 7.58994 12.492 7.35602 12.4922C7.12192 12.4922 6.93219 12.3015 6.93219 12.0674C6.93243 11.8335 7.12207 11.6436 7.35602 11.6436ZM8.31305 11.6436C8.54693 11.6436 8.73663 11.8335 8.73688 12.0674C8.73688 12.3014 8.54708 12.4921 8.31305 12.4922C8.07895 12.4922 7.88922 12.3015 7.88922 12.0674C7.88946 11.8335 8.0791 11.6436 8.31305 11.6436ZM9.26617 11.6436C9.50001 11.6437 9.68976 11.8336 9.69 12.0674C9.69 12.3014 9.50016 12.492 9.26617 12.4922C9.03207 12.4922 8.84235 12.3015 8.84235 12.0674C8.84259 11.8335 9.03222 11.6436 9.26617 11.6436ZM10.2164 11.6436C10.4503 11.6436 10.6409 11.8335 10.6412 12.0674C10.6412 12.3015 10.4505 12.4922 10.2164 12.4922C9.98247 12.492 9.79254 12.3013 9.79254 12.0674C9.79278 11.8336 9.98262 11.6438 10.2164 11.6436ZM11.1675 11.6436C11.4015 11.6436 11.5911 11.8335 11.5914 12.0674C11.5914 12.3015 11.4016 12.4922 11.1675 12.4922C10.9335 12.4921 10.7437 12.3014 10.7437 12.0674C10.744 11.8335 10.9337 11.6436 11.1675 11.6436ZM12.1187 11.6436C12.3526 11.6436 12.5423 11.8335 12.5425 12.0674C12.5425 12.3014 12.3528 12.4921 12.1187 12.4922C11.8846 12.4922 11.6949 12.3015 11.6949 12.0674C11.6951 11.8335 11.8848 11.6436 12.1187 11.6436ZM13.065 11.6436C13.299 11.6436 13.4886 11.8335 13.4888 12.0674C13.4888 12.3015 13.2991 12.4922 13.065 12.4922C12.831 12.492 12.6412 12.3014 12.6412 12.0674C12.6414 11.8336 12.8312 11.6437 13.065 11.6436ZM14.023 11.6436C14.2567 11.6438 14.4466 11.8336 14.4468 12.0674C14.4468 12.3013 14.2569 12.4919 14.023 12.4922C13.7889 12.4922 13.5982 12.3015 13.5982 12.0674C13.5984 11.8335 13.7891 11.6436 14.023 11.6436ZM14.9752 11.6436C15.2091 11.6436 15.3987 11.8335 15.399 12.0674C15.399 12.3015 15.2093 12.4922 14.9752 12.4922C14.7412 12.492 14.5513 12.3014 14.5513 12.0674C14.5516 11.8336 14.7414 11.6438 14.9752 11.6436ZM15.9244 11.6436C16.1583 11.6436 16.348 11.8335 16.3482 12.0674C16.3482 12.3015 16.1585 12.4922 15.9244 12.4922C15.6903 12.4922 15.5005 12.3015 15.5005 12.0674C15.5008 11.8335 15.6904 11.6436 15.9244 11.6436ZM16.8795 11.6436C17.1134 11.6436 17.303 11.8335 17.3033 12.0674C17.3033 12.3015 17.1136 12.4922 16.8795 12.4922C16.6454 12.4922 16.4556 12.3015 16.4556 12.0674C16.4559 11.8335 16.6455 11.6436 16.8795 11.6436ZM7.83746 10.7012C8.07155 10.7012 8.26128 10.8909 8.26129 11.125C8.26129 11.3591 8.07155 11.5488 7.83746 11.5488C7.60336 11.5488 7.41363 11.3591 7.41363 11.125C7.41365 10.8909 7.60337 10.7012 7.83746 10.7012ZM8.79254 10.7012C9.02663 10.7012 9.21635 10.8909 9.21637 11.125C9.21637 11.3591 9.02664 11.5488 8.79254 11.5488C8.55846 11.5488 8.36871 11.3591 8.36871 11.125C8.36873 10.8909 8.55847 10.7012 8.79254 10.7012ZM9.74176 10.7012C9.97567 10.7014 10.1656 10.891 10.1656 11.125C10.1656 11.359 9.97568 11.5486 9.74176 11.5488C9.50766 11.5488 9.31793 11.3591 9.31793 11.125C9.31795 10.8909 9.50767 10.7012 9.74176 10.7012ZM10.692 10.7012C10.926 10.7012 11.1158 10.8909 11.1158 11.125C11.1158 11.3591 10.9261 11.5488 10.692 11.5488C10.458 11.5487 10.2681 11.359 10.2681 11.125C10.2681 10.891 10.458 10.7013 10.692 10.7012ZM11.65 10.7012C11.8839 10.7014 12.0738 10.8911 12.0738 11.125C12.0738 11.359 11.8839 11.5486 11.65 11.5488C11.4159 11.5488 11.2252 11.3591 11.2252 11.125C11.2252 10.8909 11.4159 10.7012 11.65 10.7012ZM12.5923 10.7012C12.8262 10.7014 13.0162 10.891 13.0162 11.125C13.0162 11.359 12.8263 11.5486 12.5923 11.5488C12.3582 11.5488 12.1685 11.3591 12.1685 11.125C12.1685 10.8909 12.3583 10.7012 12.5923 10.7012ZM13.5474 10.7012C13.7814 10.7014 13.9712 10.891 13.9713 11.125C13.9713 11.359 13.7814 11.5486 13.5474 11.5488C13.3133 11.5488 13.1236 11.3591 13.1236 11.125C13.1236 10.8909 13.3133 10.7012 13.5474 10.7012ZM14.5005 10.7012C14.7344 10.7014 14.9244 10.8911 14.9244 11.125C14.9244 11.359 14.7344 11.5486 14.5005 11.5488C14.2664 11.5488 14.0757 11.3591 14.0757 11.125C14.0758 10.8909 14.2665 10.7012 14.5005 10.7012ZM15.4556 10.7012C15.6895 10.7014 15.8794 10.891 15.8795 11.125C15.8795 11.359 15.6896 11.5486 15.4556 11.5488C15.2215 11.5488 15.0318 11.3591 15.0318 11.125C15.0318 10.8909 15.2215 10.7012 15.4556 10.7012ZM16.4039 10.7012C16.638 10.7012 16.8277 10.8909 16.8277 11.125C16.8277 11.3591 16.638 11.5488 16.4039 11.5488C16.1698 11.5487 15.98 11.3591 15.98 11.125C15.9801 10.891 16.1698 10.7013 16.4039 10.7012ZM17.3589 10.7012C17.593 10.7012 17.7828 10.8909 17.7828 11.125C17.7828 11.3591 17.5931 11.5488 17.3589 11.5488C17.1249 11.5487 16.9351 11.359 16.9351 11.125C16.9351 10.891 17.125 10.7013 17.3589 10.7012ZM8.3111 9.75879C8.54505 9.75897 8.73492 9.94863 8.73492 10.1826C8.73492 10.4166 8.54505 10.6063 8.3111 10.6064C8.07699 10.6064 7.88727 10.4167 7.88727 10.1826C7.88727 9.94851 8.07699 9.75879 8.3111 9.75879ZM9.26422 9.75879C9.49812 9.75902 9.68805 9.94866 9.68805 10.1826C9.68805 10.4166 9.49812 10.6062 9.26422 10.6064C9.03012 10.6064 8.84039 10.4167 8.84039 10.1826C8.84039 9.94851 9.03012 9.75879 9.26422 9.75879ZM10.2164 9.75879C10.4505 9.75879 10.6412 9.94851 10.6412 10.1826C10.6412 10.4167 10.4505 10.6064 10.2164 10.6064C9.98247 10.6062 9.79254 10.4166 9.79254 10.1826C9.79254 9.94866 9.98247 9.75903 10.2164 9.75879ZM11.1656 9.75879C11.3997 9.75879 11.5894 9.94852 11.5894 10.1826C11.5894 10.4167 11.3997 10.6064 11.1656 10.6064C10.9315 10.6064 10.7418 10.4167 10.7418 10.1826C10.7418 9.94851 10.9315 9.75879 11.1656 9.75879ZM12.1207 9.75879C12.3548 9.75879 12.5445 9.94851 12.5445 10.1826C12.5445 10.4167 12.3548 10.6064 12.1207 10.6064C11.8866 10.6064 11.6968 10.4167 11.6968 10.1826C11.6968 9.94854 11.8866 9.75882 12.1207 9.75879ZM8.7818 8.81641C9.0159 8.81641 9.20563 9.00613 9.20563 9.24023C9.20554 9.47426 9.01585 9.66406 8.7818 9.66406C8.54783 9.66397 8.35806 9.47421 8.35797 9.24023C8.35797 9.00619 8.54778 8.8165 8.7818 8.81641ZM9.73492 8.81641C9.96903 8.81641 10.1588 9.00613 10.1588 9.24023C10.1587 9.47426 9.96897 9.66406 9.73492 9.66406C9.5009 9.66403 9.31118 9.47424 9.3111 9.24023C9.3111 9.00615 9.50085 8.81644 9.73492 8.81641ZM10.688 8.81641C10.9221 8.81643 11.1119 9.00614 11.1119 9.24023C11.1118 9.47425 10.9221 9.66404 10.688 9.66406C10.454 9.66406 10.2643 9.47426 10.2642 9.24023C10.2642 9.00613 10.4539 8.81641 10.688 8.81641ZM11.6451 8.81641C11.8792 8.81641 12.0689 9.00613 12.0689 9.24023C12.0688 9.47426 11.8791 9.66406 11.6451 9.66406C11.4111 9.66396 11.2213 9.4742 11.2213 9.24023C11.2213 9.0062 11.4111 8.81651 11.6451 8.81641ZM12.5923 8.81641C12.8263 8.81663 13.0162 9.00627 13.0162 9.24023C13.0161 9.47413 12.8262 9.66384 12.5923 9.66406C12.3583 9.66406 12.1686 9.47426 12.1685 9.24023C12.1685 9.00613 12.3582 8.81641 12.5923 8.81641ZM9.26422 7.87305C9.49812 7.87328 9.68805 8.06389 9.68805 8.29785C9.68781 8.5316 9.49797 8.72145 9.26422 8.72168C9.03027 8.72168 8.84064 8.53175 8.84039 8.29785C8.84039 8.06375 9.03012 7.87305 9.26422 7.87305ZM10.2164 7.87305C10.4505 7.87305 10.6412 8.06375 10.6412 8.29785C10.6409 8.53175 10.4503 8.72168 10.2164 8.72168C9.98262 8.72144 9.79278 8.5316 9.79254 8.29785C9.79254 8.0639 9.98247 7.87328 10.2164 7.87305ZM11.1656 7.87305C11.3997 7.87305 11.5894 8.06375 11.5894 8.29785C11.5892 8.53175 11.3995 8.72168 11.1656 8.72168C10.9316 8.72168 10.742 8.53175 10.7418 8.29785C10.7418 8.06375 10.9315 7.87305 11.1656 7.87305ZM12.1207 7.87305C12.3548 7.87305 12.5445 8.06375 12.5445 8.29785C12.5443 8.53175 12.3546 8.72168 12.1207 8.72168C11.8867 8.72165 11.6971 8.53173 11.6968 8.29785C11.6968 8.06377 11.8866 7.87308 12.1207 7.87305ZM13.0738 7.87305C13.3079 7.87307 13.4976 8.06376 13.4976 8.29785C13.4974 8.53173 13.3077 8.72166 13.0738 8.72168C12.8398 8.72168 12.6502 8.53175 12.65 8.29785C12.65 8.06375 12.8397 7.87305 13.0738 7.87305ZM16.148 7.03223L16.8023 7.53516L16.0093 7.75488L15.7388 8.54004L15.2867 7.8457L14.4644 7.82715L14.9791 7.17871L14.7418 6.38281L15.5113 6.67676L16.1861 6.20215L16.148 7.03223ZM9.73688 6.88477C9.97095 6.88477 10.1606 7.07454 10.1607 7.30859C10.1607 7.5427 9.97098 7.73242 9.73688 7.73242C9.50288 7.73229 9.31305 7.54262 9.31305 7.30859C9.3131 7.07462 9.50292 6.88489 9.73688 6.88477ZM10.692 6.88477C10.926 6.88477 11.1157 7.07454 11.1158 7.30859C11.1158 7.5427 10.9261 7.73242 10.692 7.73242C10.458 7.73226 10.2681 7.5426 10.2681 7.30859C10.2682 7.07464 10.458 6.88493 10.692 6.88477ZM11.647 6.88477C11.8811 6.88477 12.0708 7.07454 12.0709 7.30859C12.0709 7.5427 11.8811 7.73242 11.647 7.73242C11.4131 7.73222 11.2232 7.54257 11.2232 7.30859C11.2233 7.07466 11.4131 6.88496 11.647 6.88477ZM12.5982 6.88477C12.8323 6.88477 13.022 7.07454 13.022 7.30859C13.022 7.5427 12.8323 7.73242 12.5982 7.73242C12.3641 7.73237 12.1744 7.54267 12.1744 7.30859C12.1744 7.07457 12.3642 6.88482 12.5982 6.88477ZM13.5474 6.88477C13.7813 6.88495 13.9712 7.07465 13.9713 7.30859C13.9713 7.54258 13.7814 7.73223 13.5474 7.73242C13.3133 7.73242 13.1236 7.5427 13.1236 7.30859C13.1237 7.07454 13.3134 6.88477 13.5474 6.88477ZM10.2125 5.94238C10.4465 5.94238 10.6362 6.13214 10.6363 6.36621C10.6363 6.60031 10.4466 6.79004 10.2125 6.79004C9.97841 6.78999 9.78863 6.60028 9.78863 6.36621C9.78868 6.13218 9.97843 5.94244 10.2125 5.94238ZM11.1617 5.94238C11.3956 5.94257 11.5855 6.13226 11.5855 6.36621C11.5855 6.6002 11.3956 6.78985 11.1617 6.79004C10.9276 6.79004 10.7379 6.60031 10.7379 6.36621C10.7379 6.13214 10.9276 5.94238 11.1617 5.94238ZM12.1207 5.94238C12.3547 5.94238 12.5445 6.13214 12.5445 6.36621C12.5445 6.60031 12.3548 6.79004 12.1207 6.79004C11.8866 6.79001 11.6968 6.60029 11.6968 6.36621C11.6969 6.13216 11.8866 5.94242 12.1207 5.94238ZM13.0699 5.94238C13.3038 5.94259 13.4937 6.13227 13.4937 6.36621C13.4937 6.60019 13.3038 6.78983 13.0699 6.79004C12.8358 6.79004 12.6461 6.60031 12.6461 6.36621C12.6461 6.13214 12.8358 5.94238 13.0699 5.94238ZM14.023 5.94238C14.2569 5.94264 14.4468 6.13231 14.4468 6.36621C14.4468 6.60015 14.2569 6.78978 14.023 6.79004C13.7889 6.79004 13.5982 6.60031 13.5982 6.36621C13.5982 6.13214 13.7889 5.94238 14.023 5.94238ZM10.692 5C10.9261 5 11.1158 5.18973 11.1158 5.42383C11.1157 5.65789 10.926 5.84766 10.692 5.84766C10.458 5.84749 10.2682 5.65779 10.2681 5.42383C10.2681 5.18983 10.458 5.00016 10.692 5ZM11.647 5C11.8811 5 12.0709 5.18973 12.0709 5.42383C12.0708 5.65789 11.8811 5.84766 11.647 5.84766C11.4131 5.84746 11.2232 5.65777 11.2232 5.42383C11.2232 5.18985 11.4131 5.0002 11.647 5ZM12.5982 5C12.8323 5 13.022 5.18973 13.022 5.42383C13.022 5.65789 12.8323 5.84766 12.5982 5.84766C12.3642 5.84761 12.1744 5.65786 12.1744 5.42383C12.1744 5.18976 12.3641 5.00005 12.5982 5ZM13.5474 5C13.7814 5.00019 13.9713 5.18984 13.9713 5.42383C13.9712 5.65778 13.7813 5.84747 13.5474 5.84766C13.3133 5.84766 13.1236 5.65789 13.1236 5.42383C13.1236 5.18973 13.3133 5 13.5474 5ZM14.5005 5C14.7344 5.00024 14.9244 5.18988 14.9244 5.42383C14.9243 5.65774 14.7344 5.84741 14.5005 5.84766C14.2665 5.84766 14.0758 5.65789 14.0757 5.42383C14.0757 5.18973 14.2664 5 14.5005 5Z" fill="#667085"/>
</svg>
